%TF.GenerationSoftware,KiCad,Pcbnew,7.0.8*%
%TF.CreationDate,2023-12-04T02:10:05-07:00*%
%TF.ProjectId,Lit,4c69742e-6b69-4636-9164-5f7063625858,rev?*%
%TF.SameCoordinates,Original*%
%TF.FileFunction,Drillmap*%
%TF.FilePolarity,Positive*%
%FSLAX45Y45*%
G04 Gerber Fmt 4.5, Leading zero omitted, Abs format (unit mm)*
G04 Created by KiCad (PCBNEW 7.0.8) date 2023-12-04 02:10:05*
%MOMM*%
%LPD*%
G01*
G04 APERTURE LIST*
%ADD10C,0.100000*%
%ADD11C,0.200000*%
%ADD12C,0.040000*%
G04 APERTURE END LIST*
D10*
X15989348Y-9398000D02*
G75*
G03*
X15989348Y-9398000I-2259193J0D01*
G01*
D11*
D12*
X12712500Y-7940000D02*
X12752500Y-7980000D01*
X12752500Y-7940000D02*
X12712500Y-7980000D01*
X12712500Y-8090000D02*
X12752500Y-8130000D01*
X12752500Y-8090000D02*
X12712500Y-8130000D01*
X12712500Y-8255000D02*
X12752500Y-8295000D01*
X12752500Y-8255000D02*
X12712500Y-8295000D01*
X12805000Y-9980000D02*
X12845000Y-10020000D01*
X12845000Y-9980000D02*
X12805000Y-10020000D01*
X13455000Y-10480000D02*
X13495000Y-10520000D01*
X13495000Y-10480000D02*
X13455000Y-10520000D01*
X13530000Y-10680000D02*
X13570000Y-10720000D01*
X13570000Y-10680000D02*
X13530000Y-10720000D01*
X13755000Y-10480000D02*
X13795000Y-10520000D01*
X13795000Y-10480000D02*
X13755000Y-10520000D01*
X13955000Y-8880000D02*
X13995000Y-8920000D01*
X13995000Y-8880000D02*
X13955000Y-8920000D01*
X14255000Y-10480000D02*
X14295000Y-10520000D01*
X14295000Y-10480000D02*
X14255000Y-10520000D01*
X14255000Y-10630000D02*
X14295000Y-10670000D01*
X14295000Y-10630000D02*
X14255000Y-10670000D01*
X14255000Y-10780000D02*
X14295000Y-10820000D01*
X14295000Y-10780000D02*
X14255000Y-10820000D01*
X14705000Y-10480000D02*
X14745000Y-10520000D01*
X14745000Y-10480000D02*
X14705000Y-10520000D01*
X14705000Y-10630000D02*
X14745000Y-10670000D01*
X14745000Y-10630000D02*
X14705000Y-10670000D01*
X14705000Y-10780000D02*
X14745000Y-10820000D01*
X14745000Y-10780000D02*
X14705000Y-10820000D01*
X14737500Y-8112500D02*
X14777500Y-8152500D01*
X14777500Y-8112500D02*
X14737500Y-8152500D01*
X14742500Y-7957500D02*
X14782500Y-7997500D01*
X14782500Y-7957500D02*
X14742500Y-7997500D01*
X14757500Y-8265000D02*
X14797500Y-8305000D01*
X14797500Y-8265000D02*
X14757500Y-8305000D01*
X15205000Y-7955000D02*
X15245000Y-7995000D01*
X15245000Y-7955000D02*
X15205000Y-7995000D01*
X15205000Y-8105000D02*
X15245000Y-8145000D01*
X15245000Y-8105000D02*
X15205000Y-8145000D01*
X15205000Y-8255000D02*
X15245000Y-8295000D01*
X15245000Y-8255000D02*
X15205000Y-8295000D01*
D10*
X12050000Y-9147500D02*
G75*
G03*
X12050000Y-9147500I-50000J0D01*
G01*
X12050000Y-9401500D02*
G75*
G03*
X12050000Y-9401500I-50000J0D01*
G01*
X12050000Y-9655500D02*
G75*
G03*
X12050000Y-9655500I-50000J0D01*
G01*
X15650000Y-9147500D02*
G75*
G03*
X15650000Y-9147500I-50000J0D01*
G01*
X15650000Y-9401500D02*
G75*
G03*
X15650000Y-9401500I-50000J0D01*
G01*
X15650000Y-9655500D02*
G75*
G03*
X15650000Y-9655500I-50000J0D01*
G01*
D11*
X11726738Y-11973677D02*
X11726738Y-11773677D01*
X11726738Y-11773677D02*
X11774357Y-11773677D01*
X11774357Y-11773677D02*
X11802929Y-11783201D01*
X11802929Y-11783201D02*
X11821977Y-11802248D01*
X11821977Y-11802248D02*
X11831500Y-11821296D01*
X11831500Y-11821296D02*
X11841024Y-11859391D01*
X11841024Y-11859391D02*
X11841024Y-11887963D01*
X11841024Y-11887963D02*
X11831500Y-11926058D01*
X11831500Y-11926058D02*
X11821977Y-11945106D01*
X11821977Y-11945106D02*
X11802929Y-11964153D01*
X11802929Y-11964153D02*
X11774357Y-11973677D01*
X11774357Y-11973677D02*
X11726738Y-11973677D01*
X11926738Y-11973677D02*
X11926738Y-11840344D01*
X11926738Y-11878439D02*
X11936262Y-11859391D01*
X11936262Y-11859391D02*
X11945786Y-11849867D01*
X11945786Y-11849867D02*
X11964834Y-11840344D01*
X11964834Y-11840344D02*
X11983881Y-11840344D01*
X12050548Y-11973677D02*
X12050548Y-11840344D01*
X12050548Y-11773677D02*
X12041024Y-11783201D01*
X12041024Y-11783201D02*
X12050548Y-11792725D01*
X12050548Y-11792725D02*
X12060072Y-11783201D01*
X12060072Y-11783201D02*
X12050548Y-11773677D01*
X12050548Y-11773677D02*
X12050548Y-11792725D01*
X12174357Y-11973677D02*
X12155310Y-11964153D01*
X12155310Y-11964153D02*
X12145786Y-11945106D01*
X12145786Y-11945106D02*
X12145786Y-11773677D01*
X12279119Y-11973677D02*
X12260072Y-11964153D01*
X12260072Y-11964153D02*
X12250548Y-11945106D01*
X12250548Y-11945106D02*
X12250548Y-11773677D01*
X12507691Y-11973677D02*
X12507691Y-11773677D01*
X12507691Y-11773677D02*
X12574358Y-11916534D01*
X12574358Y-11916534D02*
X12641024Y-11773677D01*
X12641024Y-11773677D02*
X12641024Y-11973677D01*
X12821977Y-11973677D02*
X12821977Y-11868915D01*
X12821977Y-11868915D02*
X12812453Y-11849867D01*
X12812453Y-11849867D02*
X12793405Y-11840344D01*
X12793405Y-11840344D02*
X12755310Y-11840344D01*
X12755310Y-11840344D02*
X12736262Y-11849867D01*
X12821977Y-11964153D02*
X12802929Y-11973677D01*
X12802929Y-11973677D02*
X12755310Y-11973677D01*
X12755310Y-11973677D02*
X12736262Y-11964153D01*
X12736262Y-11964153D02*
X12726738Y-11945106D01*
X12726738Y-11945106D02*
X12726738Y-11926058D01*
X12726738Y-11926058D02*
X12736262Y-11907010D01*
X12736262Y-11907010D02*
X12755310Y-11897487D01*
X12755310Y-11897487D02*
X12802929Y-11897487D01*
X12802929Y-11897487D02*
X12821977Y-11887963D01*
X12917215Y-11840344D02*
X12917215Y-12040344D01*
X12917215Y-11849867D02*
X12936262Y-11840344D01*
X12936262Y-11840344D02*
X12974358Y-11840344D01*
X12974358Y-11840344D02*
X12993405Y-11849867D01*
X12993405Y-11849867D02*
X13002929Y-11859391D01*
X13002929Y-11859391D02*
X13012453Y-11878439D01*
X13012453Y-11878439D02*
X13012453Y-11935582D01*
X13012453Y-11935582D02*
X13002929Y-11954629D01*
X13002929Y-11954629D02*
X12993405Y-11964153D01*
X12993405Y-11964153D02*
X12974358Y-11973677D01*
X12974358Y-11973677D02*
X12936262Y-11973677D01*
X12936262Y-11973677D02*
X12917215Y-11964153D01*
X13098167Y-11954629D02*
X13107691Y-11964153D01*
X13107691Y-11964153D02*
X13098167Y-11973677D01*
X13098167Y-11973677D02*
X13088643Y-11964153D01*
X13088643Y-11964153D02*
X13098167Y-11954629D01*
X13098167Y-11954629D02*
X13098167Y-11973677D01*
X13098167Y-11849867D02*
X13107691Y-11859391D01*
X13107691Y-11859391D02*
X13098167Y-11868915D01*
X13098167Y-11868915D02*
X13088643Y-11859391D01*
X13088643Y-11859391D02*
X13098167Y-11849867D01*
X13098167Y-11849867D02*
X13098167Y-11868915D01*
D12*
X11425962Y-12282193D02*
X11465962Y-12322193D01*
X11465962Y-12282193D02*
X11425962Y-12322193D01*
D11*
X11764834Y-12193677D02*
X11783881Y-12193677D01*
X11783881Y-12193677D02*
X11802929Y-12203201D01*
X11802929Y-12203201D02*
X11812453Y-12212725D01*
X11812453Y-12212725D02*
X11821977Y-12231772D01*
X11821977Y-12231772D02*
X11831500Y-12269867D01*
X11831500Y-12269867D02*
X11831500Y-12317487D01*
X11831500Y-12317487D02*
X11821977Y-12355582D01*
X11821977Y-12355582D02*
X11812453Y-12374629D01*
X11812453Y-12374629D02*
X11802929Y-12384153D01*
X11802929Y-12384153D02*
X11783881Y-12393677D01*
X11783881Y-12393677D02*
X11764834Y-12393677D01*
X11764834Y-12393677D02*
X11745786Y-12384153D01*
X11745786Y-12384153D02*
X11736262Y-12374629D01*
X11736262Y-12374629D02*
X11726738Y-12355582D01*
X11726738Y-12355582D02*
X11717215Y-12317487D01*
X11717215Y-12317487D02*
X11717215Y-12269867D01*
X11717215Y-12269867D02*
X11726738Y-12231772D01*
X11726738Y-12231772D02*
X11736262Y-12212725D01*
X11736262Y-12212725D02*
X11745786Y-12203201D01*
X11745786Y-12203201D02*
X11764834Y-12193677D01*
X11917215Y-12374629D02*
X11926738Y-12384153D01*
X11926738Y-12384153D02*
X11917215Y-12393677D01*
X11917215Y-12393677D02*
X11907691Y-12384153D01*
X11907691Y-12384153D02*
X11917215Y-12374629D01*
X11917215Y-12374629D02*
X11917215Y-12393677D01*
X12098167Y-12260344D02*
X12098167Y-12393677D01*
X12050548Y-12184153D02*
X12002929Y-12327010D01*
X12002929Y-12327010D02*
X12126738Y-12327010D01*
X12241024Y-12193677D02*
X12260072Y-12193677D01*
X12260072Y-12193677D02*
X12279119Y-12203201D01*
X12279119Y-12203201D02*
X12288643Y-12212725D01*
X12288643Y-12212725D02*
X12298167Y-12231772D01*
X12298167Y-12231772D02*
X12307691Y-12269867D01*
X12307691Y-12269867D02*
X12307691Y-12317487D01*
X12307691Y-12317487D02*
X12298167Y-12355582D01*
X12298167Y-12355582D02*
X12288643Y-12374629D01*
X12288643Y-12374629D02*
X12279119Y-12384153D01*
X12279119Y-12384153D02*
X12260072Y-12393677D01*
X12260072Y-12393677D02*
X12241024Y-12393677D01*
X12241024Y-12393677D02*
X12221977Y-12384153D01*
X12221977Y-12384153D02*
X12212453Y-12374629D01*
X12212453Y-12374629D02*
X12202929Y-12355582D01*
X12202929Y-12355582D02*
X12193405Y-12317487D01*
X12193405Y-12317487D02*
X12193405Y-12269867D01*
X12193405Y-12269867D02*
X12202929Y-12231772D01*
X12202929Y-12231772D02*
X12212453Y-12212725D01*
X12212453Y-12212725D02*
X12221977Y-12203201D01*
X12221977Y-12203201D02*
X12241024Y-12193677D01*
X12431500Y-12193677D02*
X12450548Y-12193677D01*
X12450548Y-12193677D02*
X12469596Y-12203201D01*
X12469596Y-12203201D02*
X12479119Y-12212725D01*
X12479119Y-12212725D02*
X12488643Y-12231772D01*
X12488643Y-12231772D02*
X12498167Y-12269867D01*
X12498167Y-12269867D02*
X12498167Y-12317487D01*
X12498167Y-12317487D02*
X12488643Y-12355582D01*
X12488643Y-12355582D02*
X12479119Y-12374629D01*
X12479119Y-12374629D02*
X12469596Y-12384153D01*
X12469596Y-12384153D02*
X12450548Y-12393677D01*
X12450548Y-12393677D02*
X12431500Y-12393677D01*
X12431500Y-12393677D02*
X12412453Y-12384153D01*
X12412453Y-12384153D02*
X12402929Y-12374629D01*
X12402929Y-12374629D02*
X12393405Y-12355582D01*
X12393405Y-12355582D02*
X12383881Y-12317487D01*
X12383881Y-12317487D02*
X12383881Y-12269867D01*
X12383881Y-12269867D02*
X12393405Y-12231772D01*
X12393405Y-12231772D02*
X12402929Y-12212725D01*
X12402929Y-12212725D02*
X12412453Y-12203201D01*
X12412453Y-12203201D02*
X12431500Y-12193677D01*
X12583881Y-12393677D02*
X12583881Y-12260344D01*
X12583881Y-12279391D02*
X12593405Y-12269867D01*
X12593405Y-12269867D02*
X12612453Y-12260344D01*
X12612453Y-12260344D02*
X12641024Y-12260344D01*
X12641024Y-12260344D02*
X12660072Y-12269867D01*
X12660072Y-12269867D02*
X12669596Y-12288915D01*
X12669596Y-12288915D02*
X12669596Y-12393677D01*
X12669596Y-12288915D02*
X12679119Y-12269867D01*
X12679119Y-12269867D02*
X12698167Y-12260344D01*
X12698167Y-12260344D02*
X12726738Y-12260344D01*
X12726738Y-12260344D02*
X12745786Y-12269867D01*
X12745786Y-12269867D02*
X12755310Y-12288915D01*
X12755310Y-12288915D02*
X12755310Y-12393677D01*
X12850548Y-12393677D02*
X12850548Y-12260344D01*
X12850548Y-12279391D02*
X12860072Y-12269867D01*
X12860072Y-12269867D02*
X12879119Y-12260344D01*
X12879119Y-12260344D02*
X12907691Y-12260344D01*
X12907691Y-12260344D02*
X12926739Y-12269867D01*
X12926739Y-12269867D02*
X12936262Y-12288915D01*
X12936262Y-12288915D02*
X12936262Y-12393677D01*
X12936262Y-12288915D02*
X12945786Y-12269867D01*
X12945786Y-12269867D02*
X12964834Y-12260344D01*
X12964834Y-12260344D02*
X12993405Y-12260344D01*
X12993405Y-12260344D02*
X13012453Y-12269867D01*
X13012453Y-12269867D02*
X13021977Y-12288915D01*
X13021977Y-12288915D02*
X13021977Y-12393677D01*
X13412453Y-12184153D02*
X13241024Y-12441296D01*
X13669596Y-12193677D02*
X13688643Y-12193677D01*
X13688643Y-12193677D02*
X13707691Y-12203201D01*
X13707691Y-12203201D02*
X13717215Y-12212725D01*
X13717215Y-12212725D02*
X13726739Y-12231772D01*
X13726739Y-12231772D02*
X13736262Y-12269867D01*
X13736262Y-12269867D02*
X13736262Y-12317487D01*
X13736262Y-12317487D02*
X13726739Y-12355582D01*
X13726739Y-12355582D02*
X13717215Y-12374629D01*
X13717215Y-12374629D02*
X13707691Y-12384153D01*
X13707691Y-12384153D02*
X13688643Y-12393677D01*
X13688643Y-12393677D02*
X13669596Y-12393677D01*
X13669596Y-12393677D02*
X13650548Y-12384153D01*
X13650548Y-12384153D02*
X13641024Y-12374629D01*
X13641024Y-12374629D02*
X13631501Y-12355582D01*
X13631501Y-12355582D02*
X13621977Y-12317487D01*
X13621977Y-12317487D02*
X13621977Y-12269867D01*
X13621977Y-12269867D02*
X13631501Y-12231772D01*
X13631501Y-12231772D02*
X13641024Y-12212725D01*
X13641024Y-12212725D02*
X13650548Y-12203201D01*
X13650548Y-12203201D02*
X13669596Y-12193677D01*
X13821977Y-12374629D02*
X13831501Y-12384153D01*
X13831501Y-12384153D02*
X13821977Y-12393677D01*
X13821977Y-12393677D02*
X13812453Y-12384153D01*
X13812453Y-12384153D02*
X13821977Y-12374629D01*
X13821977Y-12374629D02*
X13821977Y-12393677D01*
X13955310Y-12193677D02*
X13974358Y-12193677D01*
X13974358Y-12193677D02*
X13993405Y-12203201D01*
X13993405Y-12203201D02*
X14002929Y-12212725D01*
X14002929Y-12212725D02*
X14012453Y-12231772D01*
X14012453Y-12231772D02*
X14021977Y-12269867D01*
X14021977Y-12269867D02*
X14021977Y-12317487D01*
X14021977Y-12317487D02*
X14012453Y-12355582D01*
X14012453Y-12355582D02*
X14002929Y-12374629D01*
X14002929Y-12374629D02*
X13993405Y-12384153D01*
X13993405Y-12384153D02*
X13974358Y-12393677D01*
X13974358Y-12393677D02*
X13955310Y-12393677D01*
X13955310Y-12393677D02*
X13936262Y-12384153D01*
X13936262Y-12384153D02*
X13926739Y-12374629D01*
X13926739Y-12374629D02*
X13917215Y-12355582D01*
X13917215Y-12355582D02*
X13907691Y-12317487D01*
X13907691Y-12317487D02*
X13907691Y-12269867D01*
X13907691Y-12269867D02*
X13917215Y-12231772D01*
X13917215Y-12231772D02*
X13926739Y-12212725D01*
X13926739Y-12212725D02*
X13936262Y-12203201D01*
X13936262Y-12203201D02*
X13955310Y-12193677D01*
X14212453Y-12393677D02*
X14098167Y-12393677D01*
X14155310Y-12393677D02*
X14155310Y-12193677D01*
X14155310Y-12193677D02*
X14136262Y-12222248D01*
X14136262Y-12222248D02*
X14117215Y-12241296D01*
X14117215Y-12241296D02*
X14098167Y-12250820D01*
X14393405Y-12193677D02*
X14298167Y-12193677D01*
X14298167Y-12193677D02*
X14288643Y-12288915D01*
X14288643Y-12288915D02*
X14298167Y-12279391D01*
X14298167Y-12279391D02*
X14317215Y-12269867D01*
X14317215Y-12269867D02*
X14364834Y-12269867D01*
X14364834Y-12269867D02*
X14383882Y-12279391D01*
X14383882Y-12279391D02*
X14393405Y-12288915D01*
X14393405Y-12288915D02*
X14402929Y-12307963D01*
X14402929Y-12307963D02*
X14402929Y-12355582D01*
X14402929Y-12355582D02*
X14393405Y-12374629D01*
X14393405Y-12374629D02*
X14383882Y-12384153D01*
X14383882Y-12384153D02*
X14364834Y-12393677D01*
X14364834Y-12393677D02*
X14317215Y-12393677D01*
X14317215Y-12393677D02*
X14298167Y-12384153D01*
X14298167Y-12384153D02*
X14288643Y-12374629D01*
X14469596Y-12193677D02*
X14602929Y-12193677D01*
X14602929Y-12193677D02*
X14517215Y-12393677D01*
X14669596Y-12193677D02*
X14669596Y-12231772D01*
X14745786Y-12193677D02*
X14745786Y-12231772D01*
X15041025Y-12469867D02*
X15031501Y-12460344D01*
X15031501Y-12460344D02*
X15012453Y-12431772D01*
X15012453Y-12431772D02*
X15002929Y-12412725D01*
X15002929Y-12412725D02*
X14993405Y-12384153D01*
X14993405Y-12384153D02*
X14983882Y-12336534D01*
X14983882Y-12336534D02*
X14983882Y-12298439D01*
X14983882Y-12298439D02*
X14993405Y-12250820D01*
X14993405Y-12250820D02*
X15002929Y-12222248D01*
X15002929Y-12222248D02*
X15012453Y-12203201D01*
X15012453Y-12203201D02*
X15031501Y-12174629D01*
X15031501Y-12174629D02*
X15041025Y-12165106D01*
X15107691Y-12212725D02*
X15117215Y-12203201D01*
X15117215Y-12203201D02*
X15136263Y-12193677D01*
X15136263Y-12193677D02*
X15183882Y-12193677D01*
X15183882Y-12193677D02*
X15202929Y-12203201D01*
X15202929Y-12203201D02*
X15212453Y-12212725D01*
X15212453Y-12212725D02*
X15221977Y-12231772D01*
X15221977Y-12231772D02*
X15221977Y-12250820D01*
X15221977Y-12250820D02*
X15212453Y-12279391D01*
X15212453Y-12279391D02*
X15098167Y-12393677D01*
X15098167Y-12393677D02*
X15221977Y-12393677D01*
X15345786Y-12193677D02*
X15364834Y-12193677D01*
X15364834Y-12193677D02*
X15383882Y-12203201D01*
X15383882Y-12203201D02*
X15393405Y-12212725D01*
X15393405Y-12212725D02*
X15402929Y-12231772D01*
X15402929Y-12231772D02*
X15412453Y-12269867D01*
X15412453Y-12269867D02*
X15412453Y-12317487D01*
X15412453Y-12317487D02*
X15402929Y-12355582D01*
X15402929Y-12355582D02*
X15393405Y-12374629D01*
X15393405Y-12374629D02*
X15383882Y-12384153D01*
X15383882Y-12384153D02*
X15364834Y-12393677D01*
X15364834Y-12393677D02*
X15345786Y-12393677D01*
X15345786Y-12393677D02*
X15326739Y-12384153D01*
X15326739Y-12384153D02*
X15317215Y-12374629D01*
X15317215Y-12374629D02*
X15307691Y-12355582D01*
X15307691Y-12355582D02*
X15298167Y-12317487D01*
X15298167Y-12317487D02*
X15298167Y-12269867D01*
X15298167Y-12269867D02*
X15307691Y-12231772D01*
X15307691Y-12231772D02*
X15317215Y-12212725D01*
X15317215Y-12212725D02*
X15326739Y-12203201D01*
X15326739Y-12203201D02*
X15345786Y-12193677D01*
X15650548Y-12393677D02*
X15650548Y-12193677D01*
X15736263Y-12393677D02*
X15736263Y-12288915D01*
X15736263Y-12288915D02*
X15726739Y-12269867D01*
X15726739Y-12269867D02*
X15707691Y-12260344D01*
X15707691Y-12260344D02*
X15679120Y-12260344D01*
X15679120Y-12260344D02*
X15660072Y-12269867D01*
X15660072Y-12269867D02*
X15650548Y-12279391D01*
X15860072Y-12393677D02*
X15841025Y-12384153D01*
X15841025Y-12384153D02*
X15831501Y-12374629D01*
X15831501Y-12374629D02*
X15821977Y-12355582D01*
X15821977Y-12355582D02*
X15821977Y-12298439D01*
X15821977Y-12298439D02*
X15831501Y-12279391D01*
X15831501Y-12279391D02*
X15841025Y-12269867D01*
X15841025Y-12269867D02*
X15860072Y-12260344D01*
X15860072Y-12260344D02*
X15888644Y-12260344D01*
X15888644Y-12260344D02*
X15907691Y-12269867D01*
X15907691Y-12269867D02*
X15917215Y-12279391D01*
X15917215Y-12279391D02*
X15926739Y-12298439D01*
X15926739Y-12298439D02*
X15926739Y-12355582D01*
X15926739Y-12355582D02*
X15917215Y-12374629D01*
X15917215Y-12374629D02*
X15907691Y-12384153D01*
X15907691Y-12384153D02*
X15888644Y-12393677D01*
X15888644Y-12393677D02*
X15860072Y-12393677D01*
X16041025Y-12393677D02*
X16021977Y-12384153D01*
X16021977Y-12384153D02*
X16012453Y-12365106D01*
X16012453Y-12365106D02*
X16012453Y-12193677D01*
X16193406Y-12384153D02*
X16174358Y-12393677D01*
X16174358Y-12393677D02*
X16136263Y-12393677D01*
X16136263Y-12393677D02*
X16117215Y-12384153D01*
X16117215Y-12384153D02*
X16107691Y-12365106D01*
X16107691Y-12365106D02*
X16107691Y-12288915D01*
X16107691Y-12288915D02*
X16117215Y-12269867D01*
X16117215Y-12269867D02*
X16136263Y-12260344D01*
X16136263Y-12260344D02*
X16174358Y-12260344D01*
X16174358Y-12260344D02*
X16193406Y-12269867D01*
X16193406Y-12269867D02*
X16202929Y-12288915D01*
X16202929Y-12288915D02*
X16202929Y-12307963D01*
X16202929Y-12307963D02*
X16107691Y-12327010D01*
X16279120Y-12384153D02*
X16298167Y-12393677D01*
X16298167Y-12393677D02*
X16336263Y-12393677D01*
X16336263Y-12393677D02*
X16355310Y-12384153D01*
X16355310Y-12384153D02*
X16364834Y-12365106D01*
X16364834Y-12365106D02*
X16364834Y-12355582D01*
X16364834Y-12355582D02*
X16355310Y-12336534D01*
X16355310Y-12336534D02*
X16336263Y-12327010D01*
X16336263Y-12327010D02*
X16307691Y-12327010D01*
X16307691Y-12327010D02*
X16288644Y-12317487D01*
X16288644Y-12317487D02*
X16279120Y-12298439D01*
X16279120Y-12298439D02*
X16279120Y-12288915D01*
X16279120Y-12288915D02*
X16288644Y-12269867D01*
X16288644Y-12269867D02*
X16307691Y-12260344D01*
X16307691Y-12260344D02*
X16336263Y-12260344D01*
X16336263Y-12260344D02*
X16355310Y-12269867D01*
X16431501Y-12469867D02*
X16441025Y-12460344D01*
X16441025Y-12460344D02*
X16460072Y-12431772D01*
X16460072Y-12431772D02*
X16469596Y-12412725D01*
X16469596Y-12412725D02*
X16479120Y-12384153D01*
X16479120Y-12384153D02*
X16488644Y-12336534D01*
X16488644Y-12336534D02*
X16488644Y-12298439D01*
X16488644Y-12298439D02*
X16479120Y-12250820D01*
X16479120Y-12250820D02*
X16469596Y-12222248D01*
X16469596Y-12222248D02*
X16460072Y-12203201D01*
X16460072Y-12203201D02*
X16441025Y-12174629D01*
X16441025Y-12174629D02*
X16431501Y-12165106D01*
D10*
X11465962Y-12566193D02*
G75*
G03*
X11465962Y-12566193I-50000J0D01*
G01*
D11*
X11831500Y-12657677D02*
X11717215Y-12657677D01*
X11774357Y-12657677D02*
X11774357Y-12457677D01*
X11774357Y-12457677D02*
X11755310Y-12486248D01*
X11755310Y-12486248D02*
X11736262Y-12505296D01*
X11736262Y-12505296D02*
X11717215Y-12514820D01*
X11917215Y-12638629D02*
X11926738Y-12648153D01*
X11926738Y-12648153D02*
X11917215Y-12657677D01*
X11917215Y-12657677D02*
X11907691Y-12648153D01*
X11907691Y-12648153D02*
X11917215Y-12638629D01*
X11917215Y-12638629D02*
X11917215Y-12657677D01*
X12050548Y-12457677D02*
X12069596Y-12457677D01*
X12069596Y-12457677D02*
X12088643Y-12467201D01*
X12088643Y-12467201D02*
X12098167Y-12476725D01*
X12098167Y-12476725D02*
X12107691Y-12495772D01*
X12107691Y-12495772D02*
X12117215Y-12533867D01*
X12117215Y-12533867D02*
X12117215Y-12581487D01*
X12117215Y-12581487D02*
X12107691Y-12619582D01*
X12107691Y-12619582D02*
X12098167Y-12638629D01*
X12098167Y-12638629D02*
X12088643Y-12648153D01*
X12088643Y-12648153D02*
X12069596Y-12657677D01*
X12069596Y-12657677D02*
X12050548Y-12657677D01*
X12050548Y-12657677D02*
X12031500Y-12648153D01*
X12031500Y-12648153D02*
X12021977Y-12638629D01*
X12021977Y-12638629D02*
X12012453Y-12619582D01*
X12012453Y-12619582D02*
X12002929Y-12581487D01*
X12002929Y-12581487D02*
X12002929Y-12533867D01*
X12002929Y-12533867D02*
X12012453Y-12495772D01*
X12012453Y-12495772D02*
X12021977Y-12476725D01*
X12021977Y-12476725D02*
X12031500Y-12467201D01*
X12031500Y-12467201D02*
X12050548Y-12457677D01*
X12241024Y-12457677D02*
X12260072Y-12457677D01*
X12260072Y-12457677D02*
X12279119Y-12467201D01*
X12279119Y-12467201D02*
X12288643Y-12476725D01*
X12288643Y-12476725D02*
X12298167Y-12495772D01*
X12298167Y-12495772D02*
X12307691Y-12533867D01*
X12307691Y-12533867D02*
X12307691Y-12581487D01*
X12307691Y-12581487D02*
X12298167Y-12619582D01*
X12298167Y-12619582D02*
X12288643Y-12638629D01*
X12288643Y-12638629D02*
X12279119Y-12648153D01*
X12279119Y-12648153D02*
X12260072Y-12657677D01*
X12260072Y-12657677D02*
X12241024Y-12657677D01*
X12241024Y-12657677D02*
X12221977Y-12648153D01*
X12221977Y-12648153D02*
X12212453Y-12638629D01*
X12212453Y-12638629D02*
X12202929Y-12619582D01*
X12202929Y-12619582D02*
X12193405Y-12581487D01*
X12193405Y-12581487D02*
X12193405Y-12533867D01*
X12193405Y-12533867D02*
X12202929Y-12495772D01*
X12202929Y-12495772D02*
X12212453Y-12476725D01*
X12212453Y-12476725D02*
X12221977Y-12467201D01*
X12221977Y-12467201D02*
X12241024Y-12457677D01*
X12431500Y-12457677D02*
X12450548Y-12457677D01*
X12450548Y-12457677D02*
X12469596Y-12467201D01*
X12469596Y-12467201D02*
X12479119Y-12476725D01*
X12479119Y-12476725D02*
X12488643Y-12495772D01*
X12488643Y-12495772D02*
X12498167Y-12533867D01*
X12498167Y-12533867D02*
X12498167Y-12581487D01*
X12498167Y-12581487D02*
X12488643Y-12619582D01*
X12488643Y-12619582D02*
X12479119Y-12638629D01*
X12479119Y-12638629D02*
X12469596Y-12648153D01*
X12469596Y-12648153D02*
X12450548Y-12657677D01*
X12450548Y-12657677D02*
X12431500Y-12657677D01*
X12431500Y-12657677D02*
X12412453Y-12648153D01*
X12412453Y-12648153D02*
X12402929Y-12638629D01*
X12402929Y-12638629D02*
X12393405Y-12619582D01*
X12393405Y-12619582D02*
X12383881Y-12581487D01*
X12383881Y-12581487D02*
X12383881Y-12533867D01*
X12383881Y-12533867D02*
X12393405Y-12495772D01*
X12393405Y-12495772D02*
X12402929Y-12476725D01*
X12402929Y-12476725D02*
X12412453Y-12467201D01*
X12412453Y-12467201D02*
X12431500Y-12457677D01*
X12583881Y-12657677D02*
X12583881Y-12524344D01*
X12583881Y-12543391D02*
X12593405Y-12533867D01*
X12593405Y-12533867D02*
X12612453Y-12524344D01*
X12612453Y-12524344D02*
X12641024Y-12524344D01*
X12641024Y-12524344D02*
X12660072Y-12533867D01*
X12660072Y-12533867D02*
X12669596Y-12552915D01*
X12669596Y-12552915D02*
X12669596Y-12657677D01*
X12669596Y-12552915D02*
X12679119Y-12533867D01*
X12679119Y-12533867D02*
X12698167Y-12524344D01*
X12698167Y-12524344D02*
X12726738Y-12524344D01*
X12726738Y-12524344D02*
X12745786Y-12533867D01*
X12745786Y-12533867D02*
X12755310Y-12552915D01*
X12755310Y-12552915D02*
X12755310Y-12657677D01*
X12850548Y-12657677D02*
X12850548Y-12524344D01*
X12850548Y-12543391D02*
X12860072Y-12533867D01*
X12860072Y-12533867D02*
X12879119Y-12524344D01*
X12879119Y-12524344D02*
X12907691Y-12524344D01*
X12907691Y-12524344D02*
X12926739Y-12533867D01*
X12926739Y-12533867D02*
X12936262Y-12552915D01*
X12936262Y-12552915D02*
X12936262Y-12657677D01*
X12936262Y-12552915D02*
X12945786Y-12533867D01*
X12945786Y-12533867D02*
X12964834Y-12524344D01*
X12964834Y-12524344D02*
X12993405Y-12524344D01*
X12993405Y-12524344D02*
X13012453Y-12533867D01*
X13012453Y-12533867D02*
X13021977Y-12552915D01*
X13021977Y-12552915D02*
X13021977Y-12657677D01*
X13412453Y-12448153D02*
X13241024Y-12705296D01*
X13669596Y-12457677D02*
X13688643Y-12457677D01*
X13688643Y-12457677D02*
X13707691Y-12467201D01*
X13707691Y-12467201D02*
X13717215Y-12476725D01*
X13717215Y-12476725D02*
X13726739Y-12495772D01*
X13726739Y-12495772D02*
X13736262Y-12533867D01*
X13736262Y-12533867D02*
X13736262Y-12581487D01*
X13736262Y-12581487D02*
X13726739Y-12619582D01*
X13726739Y-12619582D02*
X13717215Y-12638629D01*
X13717215Y-12638629D02*
X13707691Y-12648153D01*
X13707691Y-12648153D02*
X13688643Y-12657677D01*
X13688643Y-12657677D02*
X13669596Y-12657677D01*
X13669596Y-12657677D02*
X13650548Y-12648153D01*
X13650548Y-12648153D02*
X13641024Y-12638629D01*
X13641024Y-12638629D02*
X13631501Y-12619582D01*
X13631501Y-12619582D02*
X13621977Y-12581487D01*
X13621977Y-12581487D02*
X13621977Y-12533867D01*
X13621977Y-12533867D02*
X13631501Y-12495772D01*
X13631501Y-12495772D02*
X13641024Y-12476725D01*
X13641024Y-12476725D02*
X13650548Y-12467201D01*
X13650548Y-12467201D02*
X13669596Y-12457677D01*
X13821977Y-12638629D02*
X13831501Y-12648153D01*
X13831501Y-12648153D02*
X13821977Y-12657677D01*
X13821977Y-12657677D02*
X13812453Y-12648153D01*
X13812453Y-12648153D02*
X13821977Y-12638629D01*
X13821977Y-12638629D02*
X13821977Y-12657677D01*
X13955310Y-12457677D02*
X13974358Y-12457677D01*
X13974358Y-12457677D02*
X13993405Y-12467201D01*
X13993405Y-12467201D02*
X14002929Y-12476725D01*
X14002929Y-12476725D02*
X14012453Y-12495772D01*
X14012453Y-12495772D02*
X14021977Y-12533867D01*
X14021977Y-12533867D02*
X14021977Y-12581487D01*
X14021977Y-12581487D02*
X14012453Y-12619582D01*
X14012453Y-12619582D02*
X14002929Y-12638629D01*
X14002929Y-12638629D02*
X13993405Y-12648153D01*
X13993405Y-12648153D02*
X13974358Y-12657677D01*
X13974358Y-12657677D02*
X13955310Y-12657677D01*
X13955310Y-12657677D02*
X13936262Y-12648153D01*
X13936262Y-12648153D02*
X13926739Y-12638629D01*
X13926739Y-12638629D02*
X13917215Y-12619582D01*
X13917215Y-12619582D02*
X13907691Y-12581487D01*
X13907691Y-12581487D02*
X13907691Y-12533867D01*
X13907691Y-12533867D02*
X13917215Y-12495772D01*
X13917215Y-12495772D02*
X13926739Y-12476725D01*
X13926739Y-12476725D02*
X13936262Y-12467201D01*
X13936262Y-12467201D02*
X13955310Y-12457677D01*
X14088643Y-12457677D02*
X14212453Y-12457677D01*
X14212453Y-12457677D02*
X14145786Y-12533867D01*
X14145786Y-12533867D02*
X14174358Y-12533867D01*
X14174358Y-12533867D02*
X14193405Y-12543391D01*
X14193405Y-12543391D02*
X14202929Y-12552915D01*
X14202929Y-12552915D02*
X14212453Y-12571963D01*
X14212453Y-12571963D02*
X14212453Y-12619582D01*
X14212453Y-12619582D02*
X14202929Y-12638629D01*
X14202929Y-12638629D02*
X14193405Y-12648153D01*
X14193405Y-12648153D02*
X14174358Y-12657677D01*
X14174358Y-12657677D02*
X14117215Y-12657677D01*
X14117215Y-12657677D02*
X14098167Y-12648153D01*
X14098167Y-12648153D02*
X14088643Y-12638629D01*
X14307691Y-12657677D02*
X14345786Y-12657677D01*
X14345786Y-12657677D02*
X14364834Y-12648153D01*
X14364834Y-12648153D02*
X14374358Y-12638629D01*
X14374358Y-12638629D02*
X14393405Y-12610058D01*
X14393405Y-12610058D02*
X14402929Y-12571963D01*
X14402929Y-12571963D02*
X14402929Y-12495772D01*
X14402929Y-12495772D02*
X14393405Y-12476725D01*
X14393405Y-12476725D02*
X14383882Y-12467201D01*
X14383882Y-12467201D02*
X14364834Y-12457677D01*
X14364834Y-12457677D02*
X14326739Y-12457677D01*
X14326739Y-12457677D02*
X14307691Y-12467201D01*
X14307691Y-12467201D02*
X14298167Y-12476725D01*
X14298167Y-12476725D02*
X14288643Y-12495772D01*
X14288643Y-12495772D02*
X14288643Y-12543391D01*
X14288643Y-12543391D02*
X14298167Y-12562439D01*
X14298167Y-12562439D02*
X14307691Y-12571963D01*
X14307691Y-12571963D02*
X14326739Y-12581487D01*
X14326739Y-12581487D02*
X14364834Y-12581487D01*
X14364834Y-12581487D02*
X14383882Y-12571963D01*
X14383882Y-12571963D02*
X14393405Y-12562439D01*
X14393405Y-12562439D02*
X14402929Y-12543391D01*
X14574358Y-12524344D02*
X14574358Y-12657677D01*
X14526739Y-12448153D02*
X14479120Y-12591010D01*
X14479120Y-12591010D02*
X14602929Y-12591010D01*
X14669596Y-12457677D02*
X14669596Y-12495772D01*
X14745786Y-12457677D02*
X14745786Y-12495772D01*
X15041025Y-12733867D02*
X15031501Y-12724344D01*
X15031501Y-12724344D02*
X15012453Y-12695772D01*
X15012453Y-12695772D02*
X15002929Y-12676725D01*
X15002929Y-12676725D02*
X14993405Y-12648153D01*
X14993405Y-12648153D02*
X14983882Y-12600534D01*
X14983882Y-12600534D02*
X14983882Y-12562439D01*
X14983882Y-12562439D02*
X14993405Y-12514820D01*
X14993405Y-12514820D02*
X15002929Y-12486248D01*
X15002929Y-12486248D02*
X15012453Y-12467201D01*
X15012453Y-12467201D02*
X15031501Y-12438629D01*
X15031501Y-12438629D02*
X15041025Y-12429106D01*
X15202929Y-12457677D02*
X15164834Y-12457677D01*
X15164834Y-12457677D02*
X15145786Y-12467201D01*
X15145786Y-12467201D02*
X15136263Y-12476725D01*
X15136263Y-12476725D02*
X15117215Y-12505296D01*
X15117215Y-12505296D02*
X15107691Y-12543391D01*
X15107691Y-12543391D02*
X15107691Y-12619582D01*
X15107691Y-12619582D02*
X15117215Y-12638629D01*
X15117215Y-12638629D02*
X15126739Y-12648153D01*
X15126739Y-12648153D02*
X15145786Y-12657677D01*
X15145786Y-12657677D02*
X15183882Y-12657677D01*
X15183882Y-12657677D02*
X15202929Y-12648153D01*
X15202929Y-12648153D02*
X15212453Y-12638629D01*
X15212453Y-12638629D02*
X15221977Y-12619582D01*
X15221977Y-12619582D02*
X15221977Y-12571963D01*
X15221977Y-12571963D02*
X15212453Y-12552915D01*
X15212453Y-12552915D02*
X15202929Y-12543391D01*
X15202929Y-12543391D02*
X15183882Y-12533867D01*
X15183882Y-12533867D02*
X15145786Y-12533867D01*
X15145786Y-12533867D02*
X15126739Y-12543391D01*
X15126739Y-12543391D02*
X15117215Y-12552915D01*
X15117215Y-12552915D02*
X15107691Y-12571963D01*
X15460072Y-12657677D02*
X15460072Y-12457677D01*
X15545786Y-12657677D02*
X15545786Y-12552915D01*
X15545786Y-12552915D02*
X15536263Y-12533867D01*
X15536263Y-12533867D02*
X15517215Y-12524344D01*
X15517215Y-12524344D02*
X15488644Y-12524344D01*
X15488644Y-12524344D02*
X15469596Y-12533867D01*
X15469596Y-12533867D02*
X15460072Y-12543391D01*
X15669596Y-12657677D02*
X15650548Y-12648153D01*
X15650548Y-12648153D02*
X15641025Y-12638629D01*
X15641025Y-12638629D02*
X15631501Y-12619582D01*
X15631501Y-12619582D02*
X15631501Y-12562439D01*
X15631501Y-12562439D02*
X15641025Y-12543391D01*
X15641025Y-12543391D02*
X15650548Y-12533867D01*
X15650548Y-12533867D02*
X15669596Y-12524344D01*
X15669596Y-12524344D02*
X15698167Y-12524344D01*
X15698167Y-12524344D02*
X15717215Y-12533867D01*
X15717215Y-12533867D02*
X15726739Y-12543391D01*
X15726739Y-12543391D02*
X15736263Y-12562439D01*
X15736263Y-12562439D02*
X15736263Y-12619582D01*
X15736263Y-12619582D02*
X15726739Y-12638629D01*
X15726739Y-12638629D02*
X15717215Y-12648153D01*
X15717215Y-12648153D02*
X15698167Y-12657677D01*
X15698167Y-12657677D02*
X15669596Y-12657677D01*
X15850548Y-12657677D02*
X15831501Y-12648153D01*
X15831501Y-12648153D02*
X15821977Y-12629106D01*
X15821977Y-12629106D02*
X15821977Y-12457677D01*
X16002929Y-12648153D02*
X15983882Y-12657677D01*
X15983882Y-12657677D02*
X15945786Y-12657677D01*
X15945786Y-12657677D02*
X15926739Y-12648153D01*
X15926739Y-12648153D02*
X15917215Y-12629106D01*
X15917215Y-12629106D02*
X15917215Y-12552915D01*
X15917215Y-12552915D02*
X15926739Y-12533867D01*
X15926739Y-12533867D02*
X15945786Y-12524344D01*
X15945786Y-12524344D02*
X15983882Y-12524344D01*
X15983882Y-12524344D02*
X16002929Y-12533867D01*
X16002929Y-12533867D02*
X16012453Y-12552915D01*
X16012453Y-12552915D02*
X16012453Y-12571963D01*
X16012453Y-12571963D02*
X15917215Y-12591010D01*
X16088644Y-12648153D02*
X16107691Y-12657677D01*
X16107691Y-12657677D02*
X16145786Y-12657677D01*
X16145786Y-12657677D02*
X16164834Y-12648153D01*
X16164834Y-12648153D02*
X16174358Y-12629106D01*
X16174358Y-12629106D02*
X16174358Y-12619582D01*
X16174358Y-12619582D02*
X16164834Y-12600534D01*
X16164834Y-12600534D02*
X16145786Y-12591010D01*
X16145786Y-12591010D02*
X16117215Y-12591010D01*
X16117215Y-12591010D02*
X16098167Y-12581487D01*
X16098167Y-12581487D02*
X16088644Y-12562439D01*
X16088644Y-12562439D02*
X16088644Y-12552915D01*
X16088644Y-12552915D02*
X16098167Y-12533867D01*
X16098167Y-12533867D02*
X16117215Y-12524344D01*
X16117215Y-12524344D02*
X16145786Y-12524344D01*
X16145786Y-12524344D02*
X16164834Y-12533867D01*
X16241025Y-12733867D02*
X16250548Y-12724344D01*
X16250548Y-12724344D02*
X16269596Y-12695772D01*
X16269596Y-12695772D02*
X16279120Y-12676725D01*
X16279120Y-12676725D02*
X16288644Y-12648153D01*
X16288644Y-12648153D02*
X16298167Y-12600534D01*
X16298167Y-12600534D02*
X16298167Y-12562439D01*
X16298167Y-12562439D02*
X16288644Y-12514820D01*
X16288644Y-12514820D02*
X16279120Y-12486248D01*
X16279120Y-12486248D02*
X16269596Y-12467201D01*
X16269596Y-12467201D02*
X16250548Y-12438629D01*
X16250548Y-12438629D02*
X16241025Y-12429106D01*
M02*
