M48
; DRILL file {KiCad 7.0.8} date Mon Dec  4 02:10:03 2023
; FORMAT={-:-/ absolute / metric / decimal}
; #@! TF.CreationDate,2023-12-04T02:10:03-07:00
; #@! TF.GenerationSoftware,Kicad,Pcbnew,7.0.8
; #@! TF.FileFunction,Plated,1,2,PTH
FMAT,2
METRIC
; #@! TA.AperFunction,Plated,PTH,ViaDrill
T1C0.400
; #@! TA.AperFunction,Plated,PTH,ComponentDrill
T2C1.000
%
G90
G05
T1
X127.325Y-79.6
X127.325Y-81.1
X127.325Y-82.75
X128.25Y-100.0
X134.75Y-105.0
X135.5Y-107.0
X137.75Y-105.0
X139.75Y-89.0
X142.75Y-105.0
X142.75Y-106.5
X142.75Y-108.0
X147.25Y-105.0
X147.25Y-106.5
X147.25Y-108.0
X147.575Y-81.325
X147.625Y-79.775
X147.775Y-82.85
X152.25Y-79.75
X152.25Y-81.25
X152.25Y-82.75
T2
X120.0Y-91.475
X120.0Y-94.015
X120.0Y-96.555
X156.0Y-91.475
X156.0Y-94.015
X156.0Y-96.555
T0
M30
