G04 #@! TF.GenerationSoftware,KiCad,Pcbnew,7.0.8*
G04 #@! TF.CreationDate,2023-12-04T03:04:35-07:00*
G04 #@! TF.ProjectId,Lit,4c69742e-6b69-4636-9164-5f7063625858,rev?*
G04 #@! TF.SameCoordinates,Original*
G04 #@! TF.FileFunction,Legend,Top*
G04 #@! TF.FilePolarity,Positive*
%FSLAX46Y46*%
G04 Gerber Fmt 4.6, Leading zero omitted, Abs format (unit mm)*
G04 Created by KiCad (PCBNEW 7.0.8) date 2023-12-04 03:04:35*
%MOMM*%
%LPD*%
G01*
G04 APERTURE LIST*
G04 Aperture macros list*
%AMRoundRect*
0 Rectangle with rounded corners*
0 $1 Rounding radius*
0 $2 $3 $4 $5 $6 $7 $8 $9 X,Y pos of 4 corners*
0 Add a 4 corners polygon primitive as box body*
4,1,4,$2,$3,$4,$5,$6,$7,$8,$9,$2,$3,0*
0 Add four circle primitives for the rounded corners*
1,1,$1+$1,$2,$3*
1,1,$1+$1,$4,$5*
1,1,$1+$1,$6,$7*
1,1,$1+$1,$8,$9*
0 Add four rect primitives between the rounded corners*
20,1,$1+$1,$2,$3,$4,$5,0*
20,1,$1+$1,$4,$5,$6,$7,0*
20,1,$1+$1,$6,$7,$8,$9,0*
20,1,$1+$1,$8,$9,$2,$3,0*%
%AMFreePoly0*
4,1,9,3.862500,-0.866500,0.737500,-0.866500,0.737500,-0.450000,-0.737500,-0.450000,-0.737500,0.450000,0.737500,0.450000,0.737500,0.866500,3.862500,0.866500,3.862500,-0.866500,3.862500,-0.866500,$1*%
G04 Aperture macros list end*
%ADD10C,0.150000*%
%ADD11C,0.120000*%
%ADD12C,0.250000*%
%ADD13C,0.300000*%
%ADD14R,0.900000X1.300000*%
%ADD15FreePoly0,270.000000*%
%ADD16R,2.260000X1.000000*%
%ADD17RoundRect,0.250000X-0.475000X0.250000X-0.475000X-0.250000X0.475000X-0.250000X0.475000X0.250000X0*%
%ADD18RoundRect,0.100000X-0.100000X0.130000X-0.100000X-0.130000X0.100000X-0.130000X0.100000X0.130000X0*%
%ADD19RoundRect,0.250000X0.250000X0.475000X-0.250000X0.475000X-0.250000X-0.475000X0.250000X-0.475000X0*%
%ADD20R,1.700000X1.700000*%
%ADD21O,1.700000X1.700000*%
%ADD22RoundRect,0.100000X-0.217500X-0.100000X0.217500X-0.100000X0.217500X0.100000X-0.217500X0.100000X0*%
%ADD23O,0.630000X1.860000*%
G04 APERTURE END LIST*
D10*
X123110588Y-90227438D02*
X123015350Y-90179819D01*
X123015350Y-90179819D02*
X122872493Y-90179819D01*
X122872493Y-90179819D02*
X122729636Y-90227438D01*
X122729636Y-90227438D02*
X122634398Y-90322676D01*
X122634398Y-90322676D02*
X122586779Y-90417914D01*
X122586779Y-90417914D02*
X122539160Y-90608390D01*
X122539160Y-90608390D02*
X122539160Y-90751247D01*
X122539160Y-90751247D02*
X122586779Y-90941723D01*
X122586779Y-90941723D02*
X122634398Y-91036961D01*
X122634398Y-91036961D02*
X122729636Y-91132200D01*
X122729636Y-91132200D02*
X122872493Y-91179819D01*
X122872493Y-91179819D02*
X122967731Y-91179819D01*
X122967731Y-91179819D02*
X123110588Y-91132200D01*
X123110588Y-91132200D02*
X123158207Y-91084580D01*
X123158207Y-91084580D02*
X123158207Y-90751247D01*
X123158207Y-90751247D02*
X122967731Y-90751247D01*
X123586779Y-91179819D02*
X123586779Y-90179819D01*
X123586779Y-90179819D02*
X124158207Y-91179819D01*
X124158207Y-91179819D02*
X124158207Y-90179819D01*
X124634398Y-91179819D02*
X124634398Y-90179819D01*
X124634398Y-90179819D02*
X124872493Y-90179819D01*
X124872493Y-90179819D02*
X125015350Y-90227438D01*
X125015350Y-90227438D02*
X125110588Y-90322676D01*
X125110588Y-90322676D02*
X125158207Y-90417914D01*
X125158207Y-90417914D02*
X125205826Y-90608390D01*
X125205826Y-90608390D02*
X125205826Y-90751247D01*
X125205826Y-90751247D02*
X125158207Y-90941723D01*
X125158207Y-90941723D02*
X125110588Y-91036961D01*
X125110588Y-91036961D02*
X125015350Y-91132200D01*
X125015350Y-91132200D02*
X124872493Y-91179819D01*
X124872493Y-91179819D02*
X124634398Y-91179819D01*
X122586779Y-92408866D02*
X123348684Y-92408866D01*
X123824874Y-92408866D02*
X124586779Y-92408866D01*
X125062969Y-92408866D02*
X125824874Y-92408866D01*
X126301064Y-92408866D02*
X127062969Y-92408866D01*
X127539159Y-92408866D02*
X128301064Y-92408866D01*
X122443922Y-93399819D02*
X122777255Y-94399819D01*
X122777255Y-94399819D02*
X123110588Y-93399819D01*
X124015350Y-94304580D02*
X123967731Y-94352200D01*
X123967731Y-94352200D02*
X123824874Y-94399819D01*
X123824874Y-94399819D02*
X123729636Y-94399819D01*
X123729636Y-94399819D02*
X123586779Y-94352200D01*
X123586779Y-94352200D02*
X123491541Y-94256961D01*
X123491541Y-94256961D02*
X123443922Y-94161723D01*
X123443922Y-94161723D02*
X123396303Y-93971247D01*
X123396303Y-93971247D02*
X123396303Y-93828390D01*
X123396303Y-93828390D02*
X123443922Y-93637914D01*
X123443922Y-93637914D02*
X123491541Y-93542676D01*
X123491541Y-93542676D02*
X123586779Y-93447438D01*
X123586779Y-93447438D02*
X123729636Y-93399819D01*
X123729636Y-93399819D02*
X123824874Y-93399819D01*
X123824874Y-93399819D02*
X123967731Y-93447438D01*
X123967731Y-93447438D02*
X124015350Y-93495057D01*
X125015350Y-94304580D02*
X124967731Y-94352200D01*
X124967731Y-94352200D02*
X124824874Y-94399819D01*
X124824874Y-94399819D02*
X124729636Y-94399819D01*
X124729636Y-94399819D02*
X124586779Y-94352200D01*
X124586779Y-94352200D02*
X124491541Y-94256961D01*
X124491541Y-94256961D02*
X124443922Y-94161723D01*
X124443922Y-94161723D02*
X124396303Y-93971247D01*
X124396303Y-93971247D02*
X124396303Y-93828390D01*
X124396303Y-93828390D02*
X124443922Y-93637914D01*
X124443922Y-93637914D02*
X124491541Y-93542676D01*
X124491541Y-93542676D02*
X124586779Y-93447438D01*
X124586779Y-93447438D02*
X124729636Y-93399819D01*
X124729636Y-93399819D02*
X124824874Y-93399819D01*
X124824874Y-93399819D02*
X124967731Y-93447438D01*
X124967731Y-93447438D02*
X125015350Y-93495057D01*
X122586779Y-95628866D02*
X123348684Y-95628866D01*
X123824874Y-95628866D02*
X124586779Y-95628866D01*
X125062969Y-95628866D02*
X125824874Y-95628866D01*
X126301064Y-95628866D02*
X127062969Y-95628866D01*
X127539159Y-95628866D02*
X128301064Y-95628866D01*
X122586779Y-97619819D02*
X122586779Y-96619819D01*
X122586779Y-96619819D02*
X122824874Y-96619819D01*
X122824874Y-96619819D02*
X122967731Y-96667438D01*
X122967731Y-96667438D02*
X123062969Y-96762676D01*
X123062969Y-96762676D02*
X123110588Y-96857914D01*
X123110588Y-96857914D02*
X123158207Y-97048390D01*
X123158207Y-97048390D02*
X123158207Y-97191247D01*
X123158207Y-97191247D02*
X123110588Y-97381723D01*
X123110588Y-97381723D02*
X123062969Y-97476961D01*
X123062969Y-97476961D02*
X122967731Y-97572200D01*
X122967731Y-97572200D02*
X122824874Y-97619819D01*
X122824874Y-97619819D02*
X122586779Y-97619819D01*
X124015350Y-97619819D02*
X124015350Y-97096009D01*
X124015350Y-97096009D02*
X123967731Y-97000771D01*
X123967731Y-97000771D02*
X123872493Y-96953152D01*
X123872493Y-96953152D02*
X123682017Y-96953152D01*
X123682017Y-96953152D02*
X123586779Y-97000771D01*
X124015350Y-97572200D02*
X123920112Y-97619819D01*
X123920112Y-97619819D02*
X123682017Y-97619819D01*
X123682017Y-97619819D02*
X123586779Y-97572200D01*
X123586779Y-97572200D02*
X123539160Y-97476961D01*
X123539160Y-97476961D02*
X123539160Y-97381723D01*
X123539160Y-97381723D02*
X123586779Y-97286485D01*
X123586779Y-97286485D02*
X123682017Y-97238866D01*
X123682017Y-97238866D02*
X123920112Y-97238866D01*
X123920112Y-97238866D02*
X124015350Y-97191247D01*
X124348684Y-96953152D02*
X124729636Y-96953152D01*
X124491541Y-96619819D02*
X124491541Y-97476961D01*
X124491541Y-97476961D02*
X124539160Y-97572200D01*
X124539160Y-97572200D02*
X124634398Y-97619819D01*
X124634398Y-97619819D02*
X124729636Y-97619819D01*
X125491541Y-97619819D02*
X125491541Y-97096009D01*
X125491541Y-97096009D02*
X125443922Y-97000771D01*
X125443922Y-97000771D02*
X125348684Y-96953152D01*
X125348684Y-96953152D02*
X125158208Y-96953152D01*
X125158208Y-96953152D02*
X125062970Y-97000771D01*
X125491541Y-97572200D02*
X125396303Y-97619819D01*
X125396303Y-97619819D02*
X125158208Y-97619819D01*
X125158208Y-97619819D02*
X125062970Y-97572200D01*
X125062970Y-97572200D02*
X125015351Y-97476961D01*
X125015351Y-97476961D02*
X125015351Y-97381723D01*
X125015351Y-97381723D02*
X125062970Y-97286485D01*
X125062970Y-97286485D02*
X125158208Y-97238866D01*
X125158208Y-97238866D02*
X125396303Y-97238866D01*
X125396303Y-97238866D02*
X125491541Y-97191247D01*
X125967732Y-97238866D02*
X126729637Y-97238866D01*
X127205827Y-97619819D02*
X127205827Y-96619819D01*
X127682017Y-96953152D02*
X127682017Y-97619819D01*
X127682017Y-97048390D02*
X127729636Y-97000771D01*
X127729636Y-97000771D02*
X127824874Y-96953152D01*
X127824874Y-96953152D02*
X127967731Y-96953152D01*
X127967731Y-96953152D02*
X128062969Y-97000771D01*
X128062969Y-97000771D02*
X128110588Y-97096009D01*
X128110588Y-97096009D02*
X128110588Y-97619819D01*
X151115601Y-90477438D02*
X151020363Y-90429819D01*
X151020363Y-90429819D02*
X150877506Y-90429819D01*
X150877506Y-90429819D02*
X150734649Y-90477438D01*
X150734649Y-90477438D02*
X150639411Y-90572676D01*
X150639411Y-90572676D02*
X150591792Y-90667914D01*
X150591792Y-90667914D02*
X150544173Y-90858390D01*
X150544173Y-90858390D02*
X150544173Y-91001247D01*
X150544173Y-91001247D02*
X150591792Y-91191723D01*
X150591792Y-91191723D02*
X150639411Y-91286961D01*
X150639411Y-91286961D02*
X150734649Y-91382200D01*
X150734649Y-91382200D02*
X150877506Y-91429819D01*
X150877506Y-91429819D02*
X150972744Y-91429819D01*
X150972744Y-91429819D02*
X151115601Y-91382200D01*
X151115601Y-91382200D02*
X151163220Y-91334580D01*
X151163220Y-91334580D02*
X151163220Y-91001247D01*
X151163220Y-91001247D02*
X150972744Y-91001247D01*
X151591792Y-91429819D02*
X151591792Y-90429819D01*
X151591792Y-90429819D02*
X152163220Y-91429819D01*
X152163220Y-91429819D02*
X152163220Y-90429819D01*
X152639411Y-91429819D02*
X152639411Y-90429819D01*
X152639411Y-90429819D02*
X152877506Y-90429819D01*
X152877506Y-90429819D02*
X153020363Y-90477438D01*
X153020363Y-90477438D02*
X153115601Y-90572676D01*
X153115601Y-90572676D02*
X153163220Y-90667914D01*
X153163220Y-90667914D02*
X153210839Y-90858390D01*
X153210839Y-90858390D02*
X153210839Y-91001247D01*
X153210839Y-91001247D02*
X153163220Y-91191723D01*
X153163220Y-91191723D02*
X153115601Y-91286961D01*
X153115601Y-91286961D02*
X153020363Y-91382200D01*
X153020363Y-91382200D02*
X152877506Y-91429819D01*
X152877506Y-91429819D02*
X152639411Y-91429819D01*
X147448936Y-92658866D02*
X148210841Y-92658866D01*
X148687031Y-92658866D02*
X149448936Y-92658866D01*
X149925126Y-92658866D02*
X150687031Y-92658866D01*
X151163221Y-92658866D02*
X151925126Y-92658866D01*
X152401316Y-92658866D02*
X153163221Y-92658866D01*
X150639411Y-93649819D02*
X150972744Y-94649819D01*
X150972744Y-94649819D02*
X151306077Y-93649819D01*
X152210839Y-94554580D02*
X152163220Y-94602200D01*
X152163220Y-94602200D02*
X152020363Y-94649819D01*
X152020363Y-94649819D02*
X151925125Y-94649819D01*
X151925125Y-94649819D02*
X151782268Y-94602200D01*
X151782268Y-94602200D02*
X151687030Y-94506961D01*
X151687030Y-94506961D02*
X151639411Y-94411723D01*
X151639411Y-94411723D02*
X151591792Y-94221247D01*
X151591792Y-94221247D02*
X151591792Y-94078390D01*
X151591792Y-94078390D02*
X151639411Y-93887914D01*
X151639411Y-93887914D02*
X151687030Y-93792676D01*
X151687030Y-93792676D02*
X151782268Y-93697438D01*
X151782268Y-93697438D02*
X151925125Y-93649819D01*
X151925125Y-93649819D02*
X152020363Y-93649819D01*
X152020363Y-93649819D02*
X152163220Y-93697438D01*
X152163220Y-93697438D02*
X152210839Y-93745057D01*
X153210839Y-94554580D02*
X153163220Y-94602200D01*
X153163220Y-94602200D02*
X153020363Y-94649819D01*
X153020363Y-94649819D02*
X152925125Y-94649819D01*
X152925125Y-94649819D02*
X152782268Y-94602200D01*
X152782268Y-94602200D02*
X152687030Y-94506961D01*
X152687030Y-94506961D02*
X152639411Y-94411723D01*
X152639411Y-94411723D02*
X152591792Y-94221247D01*
X152591792Y-94221247D02*
X152591792Y-94078390D01*
X152591792Y-94078390D02*
X152639411Y-93887914D01*
X152639411Y-93887914D02*
X152687030Y-93792676D01*
X152687030Y-93792676D02*
X152782268Y-93697438D01*
X152782268Y-93697438D02*
X152925125Y-93649819D01*
X152925125Y-93649819D02*
X153020363Y-93649819D01*
X153020363Y-93649819D02*
X153163220Y-93697438D01*
X153163220Y-93697438D02*
X153210839Y-93745057D01*
X147448936Y-95878866D02*
X148210841Y-95878866D01*
X148687031Y-95878866D02*
X149448936Y-95878866D01*
X149925126Y-95878866D02*
X150687031Y-95878866D01*
X151163221Y-95878866D02*
X151925126Y-95878866D01*
X152401316Y-95878866D02*
X153163221Y-95878866D01*
X146496553Y-97869819D02*
X146496553Y-96869819D01*
X146496553Y-96869819D02*
X146734648Y-96869819D01*
X146734648Y-96869819D02*
X146877505Y-96917438D01*
X146877505Y-96917438D02*
X146972743Y-97012676D01*
X146972743Y-97012676D02*
X147020362Y-97107914D01*
X147020362Y-97107914D02*
X147067981Y-97298390D01*
X147067981Y-97298390D02*
X147067981Y-97441247D01*
X147067981Y-97441247D02*
X147020362Y-97631723D01*
X147020362Y-97631723D02*
X146972743Y-97726961D01*
X146972743Y-97726961D02*
X146877505Y-97822200D01*
X146877505Y-97822200D02*
X146734648Y-97869819D01*
X146734648Y-97869819D02*
X146496553Y-97869819D01*
X147925124Y-97869819D02*
X147925124Y-97346009D01*
X147925124Y-97346009D02*
X147877505Y-97250771D01*
X147877505Y-97250771D02*
X147782267Y-97203152D01*
X147782267Y-97203152D02*
X147591791Y-97203152D01*
X147591791Y-97203152D02*
X147496553Y-97250771D01*
X147925124Y-97822200D02*
X147829886Y-97869819D01*
X147829886Y-97869819D02*
X147591791Y-97869819D01*
X147591791Y-97869819D02*
X147496553Y-97822200D01*
X147496553Y-97822200D02*
X147448934Y-97726961D01*
X147448934Y-97726961D02*
X147448934Y-97631723D01*
X147448934Y-97631723D02*
X147496553Y-97536485D01*
X147496553Y-97536485D02*
X147591791Y-97488866D01*
X147591791Y-97488866D02*
X147829886Y-97488866D01*
X147829886Y-97488866D02*
X147925124Y-97441247D01*
X148258458Y-97203152D02*
X148639410Y-97203152D01*
X148401315Y-96869819D02*
X148401315Y-97726961D01*
X148401315Y-97726961D02*
X148448934Y-97822200D01*
X148448934Y-97822200D02*
X148544172Y-97869819D01*
X148544172Y-97869819D02*
X148639410Y-97869819D01*
X149401315Y-97869819D02*
X149401315Y-97346009D01*
X149401315Y-97346009D02*
X149353696Y-97250771D01*
X149353696Y-97250771D02*
X149258458Y-97203152D01*
X149258458Y-97203152D02*
X149067982Y-97203152D01*
X149067982Y-97203152D02*
X148972744Y-97250771D01*
X149401315Y-97822200D02*
X149306077Y-97869819D01*
X149306077Y-97869819D02*
X149067982Y-97869819D01*
X149067982Y-97869819D02*
X148972744Y-97822200D01*
X148972744Y-97822200D02*
X148925125Y-97726961D01*
X148925125Y-97726961D02*
X148925125Y-97631723D01*
X148925125Y-97631723D02*
X148972744Y-97536485D01*
X148972744Y-97536485D02*
X149067982Y-97488866D01*
X149067982Y-97488866D02*
X149306077Y-97488866D01*
X149306077Y-97488866D02*
X149401315Y-97441247D01*
X149877506Y-97488866D02*
X150639411Y-97488866D01*
X151306077Y-96869819D02*
X151496553Y-96869819D01*
X151496553Y-96869819D02*
X151591791Y-96917438D01*
X151591791Y-96917438D02*
X151687029Y-97012676D01*
X151687029Y-97012676D02*
X151734648Y-97203152D01*
X151734648Y-97203152D02*
X151734648Y-97536485D01*
X151734648Y-97536485D02*
X151687029Y-97726961D01*
X151687029Y-97726961D02*
X151591791Y-97822200D01*
X151591791Y-97822200D02*
X151496553Y-97869819D01*
X151496553Y-97869819D02*
X151306077Y-97869819D01*
X151306077Y-97869819D02*
X151210839Y-97822200D01*
X151210839Y-97822200D02*
X151115601Y-97726961D01*
X151115601Y-97726961D02*
X151067982Y-97536485D01*
X151067982Y-97536485D02*
X151067982Y-97203152D01*
X151067982Y-97203152D02*
X151115601Y-97012676D01*
X151115601Y-97012676D02*
X151210839Y-96917438D01*
X151210839Y-96917438D02*
X151306077Y-96869819D01*
X152591791Y-97203152D02*
X152591791Y-97869819D01*
X152163220Y-97203152D02*
X152163220Y-97726961D01*
X152163220Y-97726961D02*
X152210839Y-97822200D01*
X152210839Y-97822200D02*
X152306077Y-97869819D01*
X152306077Y-97869819D02*
X152448934Y-97869819D01*
X152448934Y-97869819D02*
X152544172Y-97822200D01*
X152544172Y-97822200D02*
X152591791Y-97774580D01*
X152925125Y-97203152D02*
X153306077Y-97203152D01*
X153067982Y-96869819D02*
X153067982Y-97726961D01*
X153067982Y-97726961D02*
X153115601Y-97822200D01*
X153115601Y-97822200D02*
X153210839Y-97869819D01*
X153210839Y-97869819D02*
X153306077Y-97869819D01*
X139954819Y-84124404D02*
X140764342Y-84124404D01*
X140764342Y-84124404D02*
X140859580Y-84076785D01*
X140859580Y-84076785D02*
X140907200Y-84029166D01*
X140907200Y-84029166D02*
X140954819Y-83933928D01*
X140954819Y-83933928D02*
X140954819Y-83743452D01*
X140954819Y-83743452D02*
X140907200Y-83648214D01*
X140907200Y-83648214D02*
X140859580Y-83600595D01*
X140859580Y-83600595D02*
X140764342Y-83552976D01*
X140764342Y-83552976D02*
X139954819Y-83552976D01*
X140050057Y-83124404D02*
X140002438Y-83076785D01*
X140002438Y-83076785D02*
X139954819Y-82981547D01*
X139954819Y-82981547D02*
X139954819Y-82743452D01*
X139954819Y-82743452D02*
X140002438Y-82648214D01*
X140002438Y-82648214D02*
X140050057Y-82600595D01*
X140050057Y-82600595D02*
X140145295Y-82552976D01*
X140145295Y-82552976D02*
X140240533Y-82552976D01*
X140240533Y-82552976D02*
X140383390Y-82600595D01*
X140383390Y-82600595D02*
X140954819Y-83172023D01*
X140954819Y-83172023D02*
X140954819Y-82552976D01*
X126380952Y-78204819D02*
X125904762Y-78204819D01*
X125904762Y-78204819D02*
X125904762Y-77204819D01*
X126714286Y-77681009D02*
X127047619Y-77681009D01*
X127190476Y-78204819D02*
X126714286Y-78204819D01*
X126714286Y-78204819D02*
X126714286Y-77204819D01*
X126714286Y-77204819D02*
X127190476Y-77204819D01*
X127619048Y-78204819D02*
X127619048Y-77204819D01*
X127619048Y-77204819D02*
X127857143Y-77204819D01*
X127857143Y-77204819D02*
X128000000Y-77252438D01*
X128000000Y-77252438D02*
X128095238Y-77347676D01*
X128095238Y-77347676D02*
X128142857Y-77442914D01*
X128142857Y-77442914D02*
X128190476Y-77633390D01*
X128190476Y-77633390D02*
X128190476Y-77776247D01*
X128190476Y-77776247D02*
X128142857Y-77966723D01*
X128142857Y-77966723D02*
X128095238Y-78061961D01*
X128095238Y-78061961D02*
X128000000Y-78157200D01*
X128000000Y-78157200D02*
X127857143Y-78204819D01*
X127857143Y-78204819D02*
X127619048Y-78204819D01*
X128523810Y-77204819D02*
X129142857Y-77204819D01*
X129142857Y-77204819D02*
X128809524Y-77585771D01*
X128809524Y-77585771D02*
X128952381Y-77585771D01*
X128952381Y-77585771D02*
X129047619Y-77633390D01*
X129047619Y-77633390D02*
X129095238Y-77681009D01*
X129095238Y-77681009D02*
X129142857Y-77776247D01*
X129142857Y-77776247D02*
X129142857Y-78014342D01*
X129142857Y-78014342D02*
X129095238Y-78109580D01*
X129095238Y-78109580D02*
X129047619Y-78157200D01*
X129047619Y-78157200D02*
X128952381Y-78204819D01*
X128952381Y-78204819D02*
X128666667Y-78204819D01*
X128666667Y-78204819D02*
X128571429Y-78157200D01*
X128571429Y-78157200D02*
X128523810Y-78109580D01*
X146630952Y-78454819D02*
X146154762Y-78454819D01*
X146154762Y-78454819D02*
X146154762Y-77454819D01*
X146964286Y-77931009D02*
X147297619Y-77931009D01*
X147440476Y-78454819D02*
X146964286Y-78454819D01*
X146964286Y-78454819D02*
X146964286Y-77454819D01*
X146964286Y-77454819D02*
X147440476Y-77454819D01*
X147869048Y-78454819D02*
X147869048Y-77454819D01*
X147869048Y-77454819D02*
X148107143Y-77454819D01*
X148107143Y-77454819D02*
X148250000Y-77502438D01*
X148250000Y-77502438D02*
X148345238Y-77597676D01*
X148345238Y-77597676D02*
X148392857Y-77692914D01*
X148392857Y-77692914D02*
X148440476Y-77883390D01*
X148440476Y-77883390D02*
X148440476Y-78026247D01*
X148440476Y-78026247D02*
X148392857Y-78216723D01*
X148392857Y-78216723D02*
X148345238Y-78311961D01*
X148345238Y-78311961D02*
X148250000Y-78407200D01*
X148250000Y-78407200D02*
X148107143Y-78454819D01*
X148107143Y-78454819D02*
X147869048Y-78454819D01*
X148821429Y-77550057D02*
X148869048Y-77502438D01*
X148869048Y-77502438D02*
X148964286Y-77454819D01*
X148964286Y-77454819D02*
X149202381Y-77454819D01*
X149202381Y-77454819D02*
X149297619Y-77502438D01*
X149297619Y-77502438D02*
X149345238Y-77550057D01*
X149345238Y-77550057D02*
X149392857Y-77645295D01*
X149392857Y-77645295D02*
X149392857Y-77740533D01*
X149392857Y-77740533D02*
X149345238Y-77883390D01*
X149345238Y-77883390D02*
X148773810Y-78454819D01*
X148773810Y-78454819D02*
X149392857Y-78454819D01*
X143880952Y-112454819D02*
X143404762Y-112454819D01*
X143404762Y-112454819D02*
X143404762Y-111454819D01*
X144214286Y-111931009D02*
X144547619Y-111931009D01*
X144690476Y-112454819D02*
X144214286Y-112454819D01*
X144214286Y-112454819D02*
X144214286Y-111454819D01*
X144214286Y-111454819D02*
X144690476Y-111454819D01*
X145119048Y-112454819D02*
X145119048Y-111454819D01*
X145119048Y-111454819D02*
X145357143Y-111454819D01*
X145357143Y-111454819D02*
X145500000Y-111502438D01*
X145500000Y-111502438D02*
X145595238Y-111597676D01*
X145595238Y-111597676D02*
X145642857Y-111692914D01*
X145642857Y-111692914D02*
X145690476Y-111883390D01*
X145690476Y-111883390D02*
X145690476Y-112026247D01*
X145690476Y-112026247D02*
X145642857Y-112216723D01*
X145642857Y-112216723D02*
X145595238Y-112311961D01*
X145595238Y-112311961D02*
X145500000Y-112407200D01*
X145500000Y-112407200D02*
X145357143Y-112454819D01*
X145357143Y-112454819D02*
X145119048Y-112454819D01*
X146642857Y-112454819D02*
X146071429Y-112454819D01*
X146357143Y-112454819D02*
X146357143Y-111454819D01*
X146357143Y-111454819D02*
X146261905Y-111597676D01*
X146261905Y-111597676D02*
X146166667Y-111692914D01*
X146166667Y-111692914D02*
X146071429Y-111740533D01*
X129095238Y-103609580D02*
X129047619Y-103657200D01*
X129047619Y-103657200D02*
X128904762Y-103704819D01*
X128904762Y-103704819D02*
X128809524Y-103704819D01*
X128809524Y-103704819D02*
X128666667Y-103657200D01*
X128666667Y-103657200D02*
X128571429Y-103561961D01*
X128571429Y-103561961D02*
X128523810Y-103466723D01*
X128523810Y-103466723D02*
X128476191Y-103276247D01*
X128476191Y-103276247D02*
X128476191Y-103133390D01*
X128476191Y-103133390D02*
X128523810Y-102942914D01*
X128523810Y-102942914D02*
X128571429Y-102847676D01*
X128571429Y-102847676D02*
X128666667Y-102752438D01*
X128666667Y-102752438D02*
X128809524Y-102704819D01*
X128809524Y-102704819D02*
X128904762Y-102704819D01*
X128904762Y-102704819D02*
X129047619Y-102752438D01*
X129047619Y-102752438D02*
X129095238Y-102800057D01*
X129523810Y-103704819D02*
X129523810Y-103038152D01*
X129523810Y-102704819D02*
X129476191Y-102752438D01*
X129476191Y-102752438D02*
X129523810Y-102800057D01*
X129523810Y-102800057D02*
X129571429Y-102752438D01*
X129571429Y-102752438D02*
X129523810Y-102704819D01*
X129523810Y-102704819D02*
X129523810Y-102800057D01*
X130523809Y-103704819D02*
X129952381Y-103704819D01*
X130238095Y-103704819D02*
X130238095Y-102704819D01*
X130238095Y-102704819D02*
X130142857Y-102847676D01*
X130142857Y-102847676D02*
X130047619Y-102942914D01*
X130047619Y-102942914D02*
X129952381Y-102990533D01*
X127704819Y-101399047D02*
X127228628Y-101732380D01*
X127704819Y-101970475D02*
X126704819Y-101970475D01*
X126704819Y-101970475D02*
X126704819Y-101589523D01*
X126704819Y-101589523D02*
X126752438Y-101494285D01*
X126752438Y-101494285D02*
X126800057Y-101446666D01*
X126800057Y-101446666D02*
X126895295Y-101399047D01*
X126895295Y-101399047D02*
X127038152Y-101399047D01*
X127038152Y-101399047D02*
X127133390Y-101446666D01*
X127133390Y-101446666D02*
X127181009Y-101494285D01*
X127181009Y-101494285D02*
X127228628Y-101589523D01*
X127228628Y-101589523D02*
X127228628Y-101970475D01*
X127704819Y-100541904D02*
X126704819Y-100541904D01*
X127657200Y-100541904D02*
X127704819Y-100637142D01*
X127704819Y-100637142D02*
X127704819Y-100827618D01*
X127704819Y-100827618D02*
X127657200Y-100922856D01*
X127657200Y-100922856D02*
X127609580Y-100970475D01*
X127609580Y-100970475D02*
X127514342Y-101018094D01*
X127514342Y-101018094D02*
X127228628Y-101018094D01*
X127228628Y-101018094D02*
X127133390Y-100970475D01*
X127133390Y-100970475D02*
X127085771Y-100922856D01*
X127085771Y-100922856D02*
X127038152Y-100827618D01*
X127038152Y-100827618D02*
X127038152Y-100637142D01*
X127038152Y-100637142D02*
X127085771Y-100541904D01*
X127704819Y-99541904D02*
X127704819Y-100113332D01*
X127704819Y-99827618D02*
X126704819Y-99827618D01*
X126704819Y-99827618D02*
X126847676Y-99922856D01*
X126847676Y-99922856D02*
X126942914Y-100018094D01*
X126942914Y-100018094D02*
X126990533Y-100113332D01*
X143583333Y-87609580D02*
X143535714Y-87657200D01*
X143535714Y-87657200D02*
X143392857Y-87704819D01*
X143392857Y-87704819D02*
X143297619Y-87704819D01*
X143297619Y-87704819D02*
X143154762Y-87657200D01*
X143154762Y-87657200D02*
X143059524Y-87561961D01*
X143059524Y-87561961D02*
X143011905Y-87466723D01*
X143011905Y-87466723D02*
X142964286Y-87276247D01*
X142964286Y-87276247D02*
X142964286Y-87133390D01*
X142964286Y-87133390D02*
X143011905Y-86942914D01*
X143011905Y-86942914D02*
X143059524Y-86847676D01*
X143059524Y-86847676D02*
X143154762Y-86752438D01*
X143154762Y-86752438D02*
X143297619Y-86704819D01*
X143297619Y-86704819D02*
X143392857Y-86704819D01*
X143392857Y-86704819D02*
X143535714Y-86752438D01*
X143535714Y-86752438D02*
X143583333Y-86800057D01*
X143964286Y-86800057D02*
X144011905Y-86752438D01*
X144011905Y-86752438D02*
X144107143Y-86704819D01*
X144107143Y-86704819D02*
X144345238Y-86704819D01*
X144345238Y-86704819D02*
X144440476Y-86752438D01*
X144440476Y-86752438D02*
X144488095Y-86800057D01*
X144488095Y-86800057D02*
X144535714Y-86895295D01*
X144535714Y-86895295D02*
X144535714Y-86990533D01*
X144535714Y-86990533D02*
X144488095Y-87133390D01*
X144488095Y-87133390D02*
X143916667Y-87704819D01*
X143916667Y-87704819D02*
X144535714Y-87704819D01*
X131333333Y-90609580D02*
X131285714Y-90657200D01*
X131285714Y-90657200D02*
X131142857Y-90704819D01*
X131142857Y-90704819D02*
X131047619Y-90704819D01*
X131047619Y-90704819D02*
X130904762Y-90657200D01*
X130904762Y-90657200D02*
X130809524Y-90561961D01*
X130809524Y-90561961D02*
X130761905Y-90466723D01*
X130761905Y-90466723D02*
X130714286Y-90276247D01*
X130714286Y-90276247D02*
X130714286Y-90133390D01*
X130714286Y-90133390D02*
X130761905Y-89942914D01*
X130761905Y-89942914D02*
X130809524Y-89847676D01*
X130809524Y-89847676D02*
X130904762Y-89752438D01*
X130904762Y-89752438D02*
X131047619Y-89704819D01*
X131047619Y-89704819D02*
X131142857Y-89704819D01*
X131142857Y-89704819D02*
X131285714Y-89752438D01*
X131285714Y-89752438D02*
X131333333Y-89800057D01*
X132285714Y-90704819D02*
X131714286Y-90704819D01*
X132000000Y-90704819D02*
X132000000Y-89704819D01*
X132000000Y-89704819D02*
X131904762Y-89847676D01*
X131904762Y-89847676D02*
X131809524Y-89942914D01*
X131809524Y-89942914D02*
X131714286Y-89990533D01*
X139454819Y-106761904D02*
X140264342Y-106761904D01*
X140264342Y-106761904D02*
X140359580Y-106714285D01*
X140359580Y-106714285D02*
X140407200Y-106666666D01*
X140407200Y-106666666D02*
X140454819Y-106571428D01*
X140454819Y-106571428D02*
X140454819Y-106380952D01*
X140454819Y-106380952D02*
X140407200Y-106285714D01*
X140407200Y-106285714D02*
X140359580Y-106238095D01*
X140359580Y-106238095D02*
X140264342Y-106190476D01*
X140264342Y-106190476D02*
X139454819Y-106190476D01*
X140454819Y-105190476D02*
X140454819Y-105761904D01*
X140454819Y-105476190D02*
X139454819Y-105476190D01*
X139454819Y-105476190D02*
X139597676Y-105571428D01*
X139597676Y-105571428D02*
X139692914Y-105666666D01*
X139692914Y-105666666D02*
X139740533Y-105761904D01*
D11*
X134640000Y-84722500D02*
X134640000Y-82002500D01*
X134640000Y-82002500D02*
X134870000Y-82002500D01*
X139130000Y-80862500D02*
X139130000Y-82002500D01*
X135950000Y-84722500D02*
X134640000Y-84722500D01*
X139360000Y-82002500D02*
X139130000Y-82002500D01*
X139360000Y-82002500D02*
X139360000Y-84722500D01*
X139360000Y-84722500D02*
X138050000Y-84722500D01*
D10*
X127630000Y-83310000D02*
X127630000Y-83780000D01*
X127630000Y-83780000D02*
X127630000Y-83780000D01*
X127630000Y-83780000D02*
X122470000Y-83780000D01*
X122470000Y-83780000D02*
X122470000Y-83780000D01*
X122470000Y-83780000D02*
X122470000Y-83310000D01*
X127630000Y-79090000D02*
X127630000Y-78620000D01*
X127630000Y-78620000D02*
X127630000Y-78620000D01*
X127630000Y-78620000D02*
X122470000Y-78620000D01*
X122470000Y-78620000D02*
X122470000Y-78620000D01*
X122470000Y-78620000D02*
X122470000Y-79090000D01*
D12*
X121490000Y-79550000D02*
G75*
G03*
X121490000Y-79550000I-120000J0D01*
G01*
X146482500Y-79675000D02*
G75*
G03*
X146482500Y-79675000I-120000J0D01*
G01*
D10*
X147462500Y-78745000D02*
X147462500Y-79215000D01*
X147462500Y-78745000D02*
X147462500Y-78745000D01*
X152622500Y-78745000D02*
X147462500Y-78745000D01*
X152622500Y-78745000D02*
X152622500Y-78745000D01*
X152622500Y-79215000D02*
X152622500Y-78745000D01*
X147462500Y-83905000D02*
X147462500Y-83435000D01*
X147462500Y-83905000D02*
X147462500Y-83905000D01*
X152622500Y-83905000D02*
X147462500Y-83905000D01*
X152622500Y-83905000D02*
X152622500Y-83905000D01*
X152622500Y-83435000D02*
X152622500Y-83905000D01*
X142420000Y-104390000D02*
X142420000Y-103920000D01*
X142420000Y-103920000D02*
X142420000Y-103920000D01*
X142420000Y-103920000D02*
X147580000Y-103920000D01*
X147580000Y-103920000D02*
X147580000Y-103920000D01*
X147580000Y-103920000D02*
X147580000Y-104390000D01*
X142420000Y-108610000D02*
X142420000Y-109080000D01*
X142420000Y-109080000D02*
X142420000Y-109080000D01*
X142420000Y-109080000D02*
X147580000Y-109080000D01*
X147580000Y-109080000D02*
X147580000Y-109080000D01*
X147580000Y-109080000D02*
X147580000Y-108610000D01*
D12*
X148800000Y-108150000D02*
G75*
G03*
X148800000Y-108150000I-120000J0D01*
G01*
D11*
X132235000Y-103988748D02*
X132235000Y-104511252D01*
X130765000Y-103988748D02*
X130765000Y-104511252D01*
X144011252Y-89735000D02*
X143488748Y-89735000D01*
X144011252Y-88265000D02*
X143488748Y-88265000D01*
X154670000Y-90145000D02*
X156000000Y-90145000D01*
X154670000Y-91475000D02*
X154670000Y-90145000D01*
X154670000Y-92745000D02*
X154670000Y-97885000D01*
X154670000Y-92745000D02*
X157330000Y-92745000D01*
X154670000Y-97885000D02*
X157330000Y-97885000D01*
X157330000Y-92745000D02*
X157330000Y-97885000D01*
D10*
X133420000Y-104480000D02*
X138580000Y-104480000D01*
X133420000Y-107520000D02*
X133420000Y-104480000D01*
X138580000Y-104480000D02*
X138580000Y-107520000D01*
X138580000Y-107520000D02*
X133420000Y-107520000D01*
D13*
X133480000Y-108680000D02*
G75*
G03*
X133480000Y-108680000I-150000J0D01*
G01*
X134240000Y-106770000D02*
G75*
G03*
X134240000Y-106770000I-150000J0D01*
G01*
D11*
X118670000Y-90145000D02*
X120000000Y-90145000D01*
X118670000Y-91475000D02*
X118670000Y-90145000D01*
X118670000Y-92745000D02*
X118670000Y-97885000D01*
X118670000Y-92745000D02*
X121330000Y-92745000D01*
X118670000Y-97885000D02*
X121330000Y-97885000D01*
X121330000Y-92745000D02*
X121330000Y-97885000D01*
%LPC*%
D14*
X135500000Y-81412500D03*
D15*
X137000000Y-81500000D03*
D14*
X138500000Y-81412500D03*
D16*
X127260000Y-82700000D03*
X127260000Y-81200000D03*
X127260000Y-79700000D03*
X122840000Y-79700000D03*
X122840000Y-81200000D03*
X122840000Y-82700000D03*
X147832500Y-82825000D03*
X147832500Y-81325000D03*
X147832500Y-79825000D03*
X152252500Y-79825000D03*
X152252500Y-81325000D03*
X152252500Y-82825000D03*
X142790000Y-105000000D03*
X142790000Y-106500000D03*
X142790000Y-108000000D03*
X147210000Y-108000000D03*
X147210000Y-106500000D03*
X147210000Y-105000000D03*
D17*
X131500000Y-103300000D03*
X131500000Y-105200000D03*
D18*
X127250000Y-102680000D03*
X127250000Y-103320000D03*
D19*
X144700000Y-89000000D03*
X142800000Y-89000000D03*
D20*
X156000000Y-91475000D03*
D21*
X156000000Y-94015000D03*
X156000000Y-96555000D03*
D22*
X131092500Y-89000000D03*
X131907500Y-89000000D03*
D23*
X134090000Y-108680000D03*
X135370000Y-108680000D03*
X136630000Y-108680000D03*
X137900000Y-108680000D03*
X137900000Y-103320000D03*
X136630000Y-103320000D03*
X135370000Y-103320000D03*
X134090000Y-103320000D03*
D20*
X120000000Y-91475000D03*
D21*
X120000000Y-94015000D03*
X120000000Y-96555000D03*
%LPD*%
M02*
