G04 #@! TF.GenerationSoftware,KiCad,Pcbnew,7.0.8*
G04 #@! TF.CreationDate,2023-12-04T03:04:35-07:00*
G04 #@! TF.ProjectId,Lit,4c69742e-6b69-4636-9164-5f7063625858,rev?*
G04 #@! TF.SameCoordinates,Original*
G04 #@! TF.FileFunction,Copper,L1,Top*
G04 #@! TF.FilePolarity,Positive*
%FSLAX46Y46*%
G04 Gerber Fmt 4.6, Leading zero omitted, Abs format (unit mm)*
G04 Created by KiCad (PCBNEW 7.0.8) date 2023-12-04 03:04:35*
%MOMM*%
%LPD*%
G01*
G04 APERTURE LIST*
G04 Aperture macros list*
%AMRoundRect*
0 Rectangle with rounded corners*
0 $1 Rounding radius*
0 $2 $3 $4 $5 $6 $7 $8 $9 X,Y pos of 4 corners*
0 Add a 4 corners polygon primitive as box body*
4,1,4,$2,$3,$4,$5,$6,$7,$8,$9,$2,$3,0*
0 Add four circle primitives for the rounded corners*
1,1,$1+$1,$2,$3*
1,1,$1+$1,$4,$5*
1,1,$1+$1,$6,$7*
1,1,$1+$1,$8,$9*
0 Add four rect primitives between the rounded corners*
20,1,$1+$1,$2,$3,$4,$5,0*
20,1,$1+$1,$4,$5,$6,$7,0*
20,1,$1+$1,$6,$7,$8,$9,0*
20,1,$1+$1,$8,$9,$2,$3,0*%
%AMFreePoly0*
4,1,9,3.862500,-0.866500,0.737500,-0.866500,0.737500,-0.450000,-0.737500,-0.450000,-0.737500,0.450000,0.737500,0.450000,0.737500,0.866500,3.862500,0.866500,3.862500,-0.866500,3.862500,-0.866500,$1*%
G04 Aperture macros list end*
G04 #@! TA.AperFunction,SMDPad,CuDef*
%ADD10R,0.900000X1.300000*%
G04 #@! TD*
G04 #@! TA.AperFunction,SMDPad,CuDef*
%ADD11FreePoly0,270.000000*%
G04 #@! TD*
G04 #@! TA.AperFunction,SMDPad,CuDef*
%ADD12R,2.260000X1.000000*%
G04 #@! TD*
G04 #@! TA.AperFunction,SMDPad,CuDef*
%ADD13RoundRect,0.250000X-0.475000X0.250000X-0.475000X-0.250000X0.475000X-0.250000X0.475000X0.250000X0*%
G04 #@! TD*
G04 #@! TA.AperFunction,SMDPad,CuDef*
%ADD14RoundRect,0.100000X-0.100000X0.130000X-0.100000X-0.130000X0.100000X-0.130000X0.100000X0.130000X0*%
G04 #@! TD*
G04 #@! TA.AperFunction,SMDPad,CuDef*
%ADD15RoundRect,0.250000X0.250000X0.475000X-0.250000X0.475000X-0.250000X-0.475000X0.250000X-0.475000X0*%
G04 #@! TD*
G04 #@! TA.AperFunction,ComponentPad*
%ADD16R,1.700000X1.700000*%
G04 #@! TD*
G04 #@! TA.AperFunction,ComponentPad*
%ADD17O,1.700000X1.700000*%
G04 #@! TD*
G04 #@! TA.AperFunction,SMDPad,CuDef*
%ADD18RoundRect,0.100000X-0.217500X-0.100000X0.217500X-0.100000X0.217500X0.100000X-0.217500X0.100000X0*%
G04 #@! TD*
G04 #@! TA.AperFunction,SMDPad,CuDef*
%ADD19O,0.630000X1.860000*%
G04 #@! TD*
G04 #@! TA.AperFunction,ViaPad*
%ADD20C,0.800000*%
G04 #@! TD*
G04 #@! TA.AperFunction,Conductor*
%ADD21C,1.000000*%
G04 #@! TD*
G04 #@! TA.AperFunction,Conductor*
%ADD22C,0.250000*%
G04 #@! TD*
G04 #@! TA.AperFunction,Conductor*
%ADD23C,2.000000*%
G04 #@! TD*
G04 APERTURE END LIST*
D10*
X135500000Y-81412500D03*
D11*
X137000000Y-81500000D03*
D10*
X138500000Y-81412500D03*
D12*
X127260000Y-82700000D03*
X127260000Y-81200000D03*
X127260000Y-79700000D03*
X122840000Y-79700000D03*
X122840000Y-81200000D03*
X122840000Y-82700000D03*
X147832500Y-82825000D03*
X147832500Y-81325000D03*
X147832500Y-79825000D03*
X152252500Y-79825000D03*
X152252500Y-81325000D03*
X152252500Y-82825000D03*
X142790000Y-105000000D03*
X142790000Y-106500000D03*
X142790000Y-108000000D03*
X147210000Y-108000000D03*
X147210000Y-106500000D03*
X147210000Y-105000000D03*
D13*
X131500000Y-103300000D03*
X131500000Y-105200000D03*
D14*
X127250000Y-102680000D03*
X127250000Y-103320000D03*
D15*
X144700000Y-89000000D03*
X142800000Y-89000000D03*
D16*
X156000000Y-91475000D03*
D17*
X156000000Y-94015000D03*
X156000000Y-96555000D03*
D18*
X131092500Y-89000000D03*
X131907500Y-89000000D03*
D19*
X134090000Y-108680000D03*
X135370000Y-108680000D03*
X136630000Y-108680000D03*
X137900000Y-108680000D03*
X137900000Y-103320000D03*
X136630000Y-103320000D03*
X135370000Y-103320000D03*
X134090000Y-103320000D03*
D16*
X120000000Y-91475000D03*
D17*
X120000000Y-94015000D03*
X120000000Y-96555000D03*
D20*
X128250000Y-100000000D03*
X139750000Y-89000000D03*
X142750000Y-105000000D03*
X137750000Y-105000000D03*
X134750000Y-105000000D03*
X142750000Y-106500000D03*
X135500000Y-107000000D03*
X142750000Y-108000000D03*
X152250000Y-79750000D03*
X147250000Y-108000000D03*
X152250000Y-81250000D03*
X147250000Y-106500000D03*
X147250000Y-105000000D03*
X152250000Y-82750000D03*
X127325000Y-79600000D03*
X147625000Y-79775000D03*
X147575000Y-81325000D03*
X127325000Y-81100000D03*
X127325000Y-82750000D03*
X147775000Y-82850000D03*
D21*
X134685000Y-82227500D02*
X134685000Y-88995000D01*
X135500000Y-81412500D02*
X134685000Y-82227500D01*
X140250000Y-88500000D02*
X139750000Y-89000000D01*
X140250000Y-83162500D02*
X140250000Y-88500000D01*
X138500000Y-81412500D02*
X140250000Y-83162500D01*
D22*
X131907500Y-89000000D02*
X134680000Y-89000000D01*
D21*
X134685000Y-93730000D02*
X134685000Y-88995000D01*
D22*
X134400000Y-94015000D02*
X134685000Y-93730000D01*
X134680000Y-89000000D02*
X134685000Y-88995000D01*
D23*
X120000000Y-94015000D02*
X134400000Y-94015000D01*
X134400000Y-94015000D02*
X156000000Y-94015000D01*
D22*
X139770000Y-89000000D02*
X139765000Y-88995000D01*
X142800000Y-89000000D02*
X139770000Y-89000000D01*
X127250000Y-101000000D02*
X128250000Y-100000000D01*
X127250000Y-102680000D02*
X127250000Y-101000000D01*
X134070000Y-103300000D02*
X134090000Y-103320000D01*
X127250000Y-103320000D02*
X131480000Y-103320000D01*
X131500000Y-103300000D02*
X134070000Y-103300000D01*
X131480000Y-103320000D02*
X131500000Y-103300000D01*
X136630000Y-106120000D02*
X137750000Y-105000000D01*
X136630000Y-108680000D02*
X136630000Y-106120000D01*
X134090000Y-105660000D02*
X134090000Y-108680000D01*
X134750000Y-105000000D02*
X134090000Y-105660000D01*
X135370000Y-107130000D02*
X135500000Y-107000000D01*
X135370000Y-108680000D02*
X135370000Y-107130000D01*
X136630000Y-100505000D02*
X132680000Y-96555000D01*
X132680000Y-96555000D02*
X120000000Y-96555000D01*
X136630000Y-103320000D02*
X136630000Y-100505000D01*
X141895000Y-96555000D02*
X156000000Y-96555000D01*
X137900000Y-103320000D02*
X137900000Y-100550000D01*
X137900000Y-100550000D02*
X141895000Y-96555000D01*
G04 #@! TA.AperFunction,Conductor*
G36*
X137799785Y-71394574D02*
G01*
X138641327Y-71429845D01*
X138747446Y-71435444D01*
X139580694Y-71505413D01*
X139692548Y-71516058D01*
X140516532Y-71620151D01*
X140633424Y-71636273D01*
X141446958Y-71773872D01*
X141568368Y-71795866D01*
X142370552Y-71966375D01*
X142495807Y-71994567D01*
X143285488Y-72197323D01*
X143414057Y-72232015D01*
X144190270Y-72466367D01*
X144321508Y-72507789D01*
X145083297Y-72773072D01*
X145216543Y-72821393D01*
X145962902Y-73116897D01*
X146097638Y-73172292D01*
X146827488Y-73497242D01*
X146917268Y-73538660D01*
X146963207Y-73559853D01*
X147675648Y-73913512D01*
X147811708Y-73983381D01*
X148130482Y-74158628D01*
X148505780Y-74364949D01*
X148539851Y-74384302D01*
X148641704Y-74442158D01*
X149316472Y-74850811D01*
X149451663Y-74935332D01*
X150106295Y-75370269D01*
X150240195Y-75462054D01*
X150821499Y-75884396D01*
X150873785Y-75922384D01*
X151005928Y-76021404D01*
X151617646Y-76506246D01*
X151747448Y-76612343D01*
X152336467Y-77120770D01*
X152463539Y-77233899D01*
X152566213Y-77330316D01*
X153029072Y-77764969D01*
X153152887Y-77884930D01*
X153694170Y-78437670D01*
X153759944Y-78507004D01*
X153814283Y-78564285D01*
X154258294Y-79057410D01*
X154330601Y-79137715D01*
X154446586Y-79270794D01*
X154937253Y-79863909D01*
X155048648Y-80003163D01*
X155497753Y-80594837D01*
X155512993Y-80614914D01*
X155609644Y-80746770D01*
X155619439Y-80760132D01*
X155756266Y-80957000D01*
X156056856Y-81389493D01*
X156157957Y-81540371D01*
X156374734Y-81881957D01*
X156566981Y-82184890D01*
X156567841Y-82186244D01*
X156663242Y-82342481D01*
X157045014Y-83003726D01*
X157134435Y-83165090D01*
X157487585Y-83840605D01*
X157570666Y-84006679D01*
X157894730Y-84695350D01*
X157971196Y-84865804D01*
X158265750Y-85566519D01*
X158335309Y-85740917D01*
X158599952Y-86452521D01*
X158662385Y-86630513D01*
X158896748Y-87351807D01*
X158951850Y-87533025D01*
X159155599Y-88262772D01*
X159203198Y-88446866D01*
X159376068Y-89183905D01*
X159415975Y-89370362D01*
X159557740Y-90113520D01*
X159589827Y-90301944D01*
X159700285Y-91049957D01*
X159724453Y-91239982D01*
X159803455Y-91991632D01*
X159819613Y-92182765D01*
X159867058Y-92936897D01*
X159875149Y-93128635D01*
X159892983Y-93980000D01*
X159875149Y-94831364D01*
X159867058Y-95023102D01*
X159819613Y-95777234D01*
X159803455Y-95968367D01*
X159724453Y-96720017D01*
X159700285Y-96910042D01*
X159589827Y-97658055D01*
X159557740Y-97846479D01*
X159415975Y-98589637D01*
X159376068Y-98776094D01*
X159203198Y-99513133D01*
X159155599Y-99697227D01*
X158951850Y-100426974D01*
X158896748Y-100608192D01*
X158662385Y-101329486D01*
X158599952Y-101507478D01*
X158335309Y-102219082D01*
X158265750Y-102393480D01*
X157971196Y-103094195D01*
X157894730Y-103264649D01*
X157570666Y-103953320D01*
X157487585Y-104119394D01*
X157134435Y-104794909D01*
X157045014Y-104956273D01*
X156663242Y-105617518D01*
X156567841Y-105773755D01*
X156157957Y-106419628D01*
X156056856Y-106570506D01*
X155619447Y-107199856D01*
X155513002Y-107345073D01*
X155048648Y-107956836D01*
X154937253Y-108096090D01*
X154446586Y-108689205D01*
X154330601Y-108822284D01*
X153814293Y-109395703D01*
X153694170Y-109522329D01*
X153152887Y-110075069D01*
X153029072Y-110195030D01*
X152463542Y-110726098D01*
X152336481Y-110839218D01*
X151747448Y-111347656D01*
X151617646Y-111453753D01*
X151005912Y-111938608D01*
X150873785Y-112037615D01*
X150240194Y-112497947D01*
X150106294Y-112589731D01*
X149451663Y-113024667D01*
X149316472Y-113109188D01*
X148641704Y-113517841D01*
X148505774Y-113595053D01*
X147811708Y-113976618D01*
X147675648Y-114046487D01*
X146963207Y-114400146D01*
X146827475Y-114462763D01*
X146097646Y-114787704D01*
X145962854Y-114843121D01*
X145216553Y-115138602D01*
X145169350Y-115155721D01*
X145083299Y-115186926D01*
X144321527Y-115452204D01*
X144190240Y-115493641D01*
X143414063Y-115727982D01*
X143285493Y-115762675D01*
X142495809Y-115965431D01*
X142370527Y-115993629D01*
X141568392Y-116164128D01*
X141446964Y-116186126D01*
X140633424Y-116323726D01*
X140516465Y-116339857D01*
X139692573Y-116443938D01*
X139580667Y-116454588D01*
X138747463Y-116524554D01*
X138641279Y-116530156D01*
X137799802Y-116565424D01*
X137699889Y-116566478D01*
X136851233Y-116566478D01*
X136758222Y-116563535D01*
X135903457Y-116527710D01*
X135817859Y-116521382D01*
X134958139Y-116449189D01*
X134880507Y-116440146D01*
X134016921Y-116331050D01*
X133947897Y-116320043D01*
X133081462Y-116173496D01*
X133021676Y-116161358D01*
X132153443Y-115976810D01*
X132147899Y-115975439D01*
X132103400Y-115964431D01*
X131234483Y-115741332D01*
X131211837Y-115734706D01*
X131194655Y-115729679D01*
X130326208Y-115467479D01*
X130297260Y-115457667D01*
X129430192Y-115155721D01*
X129412724Y-115148966D01*
X128548068Y-114806625D01*
X128542451Y-114804176D01*
X127682586Y-114421340D01*
X126835029Y-114000609D01*
X126005834Y-113544755D01*
X125196455Y-113054578D01*
X124408313Y-112530937D01*
X123642790Y-111974752D01*
X122901229Y-111386998D01*
X122184931Y-110768707D01*
X121495153Y-110120962D01*
X120833104Y-109444900D01*
X120199947Y-108741708D01*
X119596792Y-108012618D01*
X119024697Y-107258911D01*
X118484666Y-106481908D01*
X117977646Y-105682972D01*
X117843139Y-105450000D01*
X130275001Y-105450000D01*
X130275001Y-105499986D01*
X130285494Y-105602697D01*
X130340641Y-105769119D01*
X130340643Y-105769124D01*
X130432684Y-105918345D01*
X130556654Y-106042315D01*
X130705875Y-106134356D01*
X130705880Y-106134358D01*
X130872302Y-106189505D01*
X130872309Y-106189506D01*
X130975019Y-106199999D01*
X131249999Y-106199999D01*
X131250000Y-106199998D01*
X131250000Y-105450000D01*
X131750000Y-105450000D01*
X131750000Y-106199999D01*
X132024972Y-106199999D01*
X132024986Y-106199998D01*
X132127697Y-106189505D01*
X132294119Y-106134358D01*
X132294124Y-106134356D01*
X132443345Y-106042315D01*
X132567315Y-105918345D01*
X132659356Y-105769124D01*
X132659358Y-105769119D01*
X132714505Y-105602697D01*
X132714506Y-105602690D01*
X132724999Y-105499986D01*
X132725000Y-105499973D01*
X132725000Y-105450000D01*
X131750000Y-105450000D01*
X131250000Y-105450000D01*
X130275001Y-105450000D01*
X117843139Y-105450000D01*
X117504526Y-104863506D01*
X117066138Y-104024946D01*
X116663249Y-103168764D01*
X116296567Y-102296461D01*
X115966735Y-101409569D01*
X115674331Y-100509642D01*
X115419868Y-99598261D01*
X115203794Y-98677023D01*
X115026487Y-97747545D01*
X114888257Y-96811457D01*
X114861302Y-96555000D01*
X118944417Y-96555000D01*
X118964699Y-96760932D01*
X118964700Y-96760934D01*
X119024768Y-96958954D01*
X119122315Y-97141450D01*
X119122317Y-97141452D01*
X119253589Y-97301410D01*
X119350209Y-97380702D01*
X119413550Y-97432685D01*
X119596046Y-97530232D01*
X119794066Y-97590300D01*
X119794065Y-97590300D01*
X119812529Y-97592118D01*
X120000000Y-97610583D01*
X120205934Y-97590300D01*
X120403954Y-97530232D01*
X120586450Y-97432685D01*
X120746410Y-97301410D01*
X120877685Y-97141450D01*
X120975232Y-96958954D01*
X120975234Y-96958945D01*
X120976021Y-96957049D01*
X120976701Y-96956203D01*
X120978104Y-96953581D01*
X120978601Y-96953846D01*
X121019862Y-96902645D01*
X121086156Y-96880579D01*
X121090583Y-96880500D01*
X132493812Y-96880500D01*
X132560851Y-96900185D01*
X132581493Y-96916819D01*
X136268181Y-100603507D01*
X136301666Y-100664830D01*
X136304500Y-100691188D01*
X136304500Y-102249776D01*
X136284815Y-102316815D01*
X136265138Y-102340398D01*
X136226362Y-102376613D01*
X136152733Y-102497690D01*
X136118577Y-102619594D01*
X136081535Y-102678837D01*
X136018344Y-102708648D01*
X135949068Y-102699564D01*
X135895700Y-102654468D01*
X135876330Y-102603023D01*
X135871051Y-102564612D01*
X135814595Y-102434636D01*
X135725164Y-102324712D01*
X135725163Y-102324711D01*
X135725158Y-102324707D01*
X135609395Y-102242992D01*
X135609394Y-102242991D01*
X135475870Y-102195537D01*
X135334492Y-102185866D01*
X135334491Y-102185866D01*
X135334490Y-102185866D01*
X135287950Y-102195537D01*
X135195747Y-102214696D01*
X135187283Y-102219082D01*
X135069926Y-102279892D01*
X135069923Y-102279894D01*
X135069922Y-102279895D01*
X135069921Y-102279895D01*
X134966360Y-102376615D01*
X134966360Y-102376616D01*
X134892733Y-102497690D01*
X134892732Y-102497692D01*
X134892732Y-102497693D01*
X134855913Y-102629105D01*
X134854500Y-102634147D01*
X134854500Y-103970264D01*
X134868949Y-104075388D01*
X134925404Y-104205363D01*
X134929814Y-104212615D01*
X134927342Y-104214118D01*
X134948853Y-104265394D01*
X134936757Y-104334208D01*
X134889377Y-104385560D01*
X134821756Y-104403144D01*
X134809439Y-104402143D01*
X134750001Y-104394318D01*
X134749999Y-104394318D01*
X134641395Y-104408616D01*
X134572360Y-104397850D01*
X134520104Y-104351470D01*
X134501219Y-104284201D01*
X134519261Y-104221251D01*
X134567268Y-104142307D01*
X134605500Y-104005854D01*
X134605500Y-102669736D01*
X134591051Y-102564612D01*
X134534595Y-102434636D01*
X134445164Y-102324712D01*
X134445163Y-102324711D01*
X134445158Y-102324707D01*
X134329395Y-102242992D01*
X134329394Y-102242991D01*
X134195870Y-102195537D01*
X134054492Y-102185866D01*
X134054491Y-102185866D01*
X134054490Y-102185866D01*
X134007950Y-102195537D01*
X133915747Y-102214696D01*
X133907283Y-102219082D01*
X133789926Y-102279892D01*
X133789923Y-102279894D01*
X133789922Y-102279895D01*
X133789921Y-102279895D01*
X133686360Y-102376615D01*
X133686360Y-102376616D01*
X133612733Y-102497690D01*
X133612732Y-102497692D01*
X133612732Y-102497693D01*
X133575913Y-102629105D01*
X133574500Y-102634147D01*
X133574500Y-102850500D01*
X133554815Y-102917539D01*
X133502011Y-102963294D01*
X133450500Y-102974500D01*
X132513847Y-102974500D01*
X132446808Y-102954815D01*
X132401053Y-102902011D01*
X132396812Y-102891471D01*
X132377793Y-102837118D01*
X132297150Y-102727850D01*
X132187882Y-102647207D01*
X132187880Y-102647206D01*
X132059700Y-102602353D01*
X132029270Y-102599500D01*
X132029266Y-102599500D01*
X130970734Y-102599500D01*
X130970730Y-102599500D01*
X130940300Y-102602353D01*
X130940298Y-102602353D01*
X130812119Y-102647206D01*
X130812117Y-102647207D01*
X130702850Y-102727850D01*
X130622207Y-102837117D01*
X130622206Y-102837119D01*
X130596195Y-102911455D01*
X130555473Y-102968231D01*
X130490520Y-102993978D01*
X130479154Y-102994500D01*
X127773518Y-102994500D01*
X127706479Y-102974815D01*
X127660724Y-102922011D01*
X127650702Y-102858470D01*
X127650293Y-102858447D01*
X127650401Y-102856565D01*
X127650345Y-102856206D01*
X127650499Y-102854877D01*
X127650499Y-102854873D01*
X127650500Y-102854865D01*
X127650499Y-102505136D01*
X127649636Y-102497693D01*
X127647586Y-102480012D01*
X127647585Y-102480010D01*
X127647585Y-102480009D01*
X127602206Y-102377235D01*
X127602203Y-102377232D01*
X127597199Y-102369926D01*
X127575554Y-102303494D01*
X127575500Y-102299851D01*
X127575500Y-101186187D01*
X127595185Y-101119148D01*
X127611815Y-101098510D01*
X128078315Y-100632009D01*
X128139636Y-100598526D01*
X128182180Y-100596753D01*
X128249999Y-100605682D01*
X128250000Y-100605682D01*
X128250001Y-100605682D01*
X128302254Y-100598802D01*
X128406762Y-100585044D01*
X128552841Y-100524536D01*
X128678282Y-100428282D01*
X128774536Y-100302841D01*
X128835044Y-100156762D01*
X128855682Y-100000000D01*
X128835044Y-99843238D01*
X128774536Y-99697159D01*
X128678282Y-99571718D01*
X128552841Y-99475464D01*
X128406762Y-99414956D01*
X128406760Y-99414955D01*
X128250001Y-99394318D01*
X128249999Y-99394318D01*
X128093239Y-99414955D01*
X128093237Y-99414956D01*
X127947160Y-99475463D01*
X127821718Y-99571718D01*
X127725463Y-99697160D01*
X127664956Y-99843237D01*
X127664955Y-99843239D01*
X127644318Y-99999998D01*
X127644318Y-100000001D01*
X127653246Y-100067818D01*
X127642480Y-100136853D01*
X127617988Y-100171684D01*
X127031803Y-100757870D01*
X127027814Y-100761525D01*
X126996805Y-100787545D01*
X126976562Y-100822606D01*
X126973656Y-100827166D01*
X126950446Y-100860313D01*
X126948206Y-100865117D01*
X126941229Y-100881961D01*
X126939410Y-100886959D01*
X126932383Y-100926811D01*
X126931212Y-100932091D01*
X126920735Y-100971191D01*
X126924264Y-101011513D01*
X126924500Y-101016920D01*
X126924500Y-102299851D01*
X126904815Y-102366890D01*
X126902801Y-102369926D01*
X126897794Y-102377235D01*
X126852415Y-102480006D01*
X126852415Y-102480008D01*
X126849500Y-102505131D01*
X126849500Y-102854856D01*
X126849502Y-102854882D01*
X126852413Y-102879986D01*
X126852414Y-102879990D01*
X126852415Y-102879991D01*
X126883289Y-102949914D01*
X126892360Y-103019191D01*
X126883289Y-103050084D01*
X126852415Y-103120006D01*
X126852415Y-103120008D01*
X126849500Y-103145131D01*
X126849500Y-103494856D01*
X126849502Y-103494882D01*
X126852413Y-103519987D01*
X126852415Y-103519991D01*
X126897793Y-103622764D01*
X126897794Y-103622765D01*
X126977235Y-103702206D01*
X127080009Y-103747585D01*
X127105135Y-103750500D01*
X127394864Y-103750499D01*
X127394879Y-103750497D01*
X127394882Y-103750497D01*
X127419987Y-103747586D01*
X127419988Y-103747585D01*
X127419991Y-103747585D01*
X127522765Y-103702206D01*
X127543152Y-103681819D01*
X127604475Y-103648334D01*
X127630833Y-103645500D01*
X130493151Y-103645500D01*
X130560190Y-103665185D01*
X130605945Y-103717989D01*
X130610187Y-103728531D01*
X130622207Y-103762882D01*
X130702850Y-103872150D01*
X130812118Y-103952793D01*
X130876033Y-103975158D01*
X130932807Y-104015878D01*
X130958555Y-104080830D01*
X130945099Y-104149392D01*
X130896712Y-104199795D01*
X130874082Y-104209904D01*
X130705878Y-104265642D01*
X130705875Y-104265643D01*
X130556654Y-104357684D01*
X130432684Y-104481654D01*
X130340643Y-104630875D01*
X130340641Y-104630880D01*
X130285494Y-104797302D01*
X130285493Y-104797309D01*
X130275000Y-104900013D01*
X130275000Y-104950000D01*
X132724999Y-104950000D01*
X132724999Y-104900028D01*
X132724998Y-104900013D01*
X132714505Y-104797302D01*
X132659358Y-104630880D01*
X132659356Y-104630875D01*
X132567315Y-104481654D01*
X132443345Y-104357684D01*
X132294124Y-104265643D01*
X132294119Y-104265641D01*
X132125917Y-104209905D01*
X132068472Y-104170133D01*
X132041649Y-104105617D01*
X132053964Y-104036841D01*
X132101507Y-103985641D01*
X132123966Y-103975158D01*
X132123972Y-103975156D01*
X132187882Y-103952793D01*
X132297150Y-103872150D01*
X132377793Y-103762882D01*
X132396806Y-103708543D01*
X132437527Y-103651769D01*
X132502480Y-103626022D01*
X132513847Y-103625500D01*
X133450500Y-103625500D01*
X133517539Y-103645185D01*
X133563294Y-103697989D01*
X133574500Y-103749500D01*
X133574500Y-103970264D01*
X133588949Y-104075388D01*
X133645405Y-104205364D01*
X133709545Y-104284201D01*
X133734836Y-104315288D01*
X133734841Y-104315292D01*
X133850604Y-104397007D01*
X133850605Y-104397008D01*
X133984129Y-104444462D01*
X133984132Y-104444463D01*
X134125510Y-104454134D01*
X134129517Y-104453301D01*
X134139487Y-104451230D01*
X134209129Y-104456863D01*
X134264670Y-104499253D01*
X134288476Y-104564942D01*
X134272989Y-104633074D01*
X134263091Y-104648122D01*
X134225464Y-104697157D01*
X134164956Y-104843237D01*
X134164955Y-104843239D01*
X134144318Y-104999998D01*
X134144318Y-105000001D01*
X134153246Y-105067818D01*
X134142480Y-105136853D01*
X134117988Y-105171684D01*
X133871803Y-105417870D01*
X133867814Y-105421525D01*
X133836805Y-105447545D01*
X133816562Y-105482606D01*
X133813656Y-105487166D01*
X133790446Y-105520313D01*
X133788206Y-105525117D01*
X133781229Y-105541961D01*
X133779410Y-105546959D01*
X133772383Y-105586811D01*
X133771212Y-105592091D01*
X133760735Y-105631191D01*
X133764264Y-105671513D01*
X133764500Y-105676920D01*
X133764500Y-107609776D01*
X133744815Y-107676815D01*
X133725138Y-107700398D01*
X133686362Y-107736613D01*
X133612733Y-107857690D01*
X133612732Y-107857692D01*
X133612732Y-107857693D01*
X133574500Y-107994146D01*
X133574500Y-109330264D01*
X133588949Y-109435388D01*
X133645405Y-109565364D01*
X133703707Y-109637026D01*
X133734836Y-109675288D01*
X133734841Y-109675292D01*
X133850604Y-109757007D01*
X133850605Y-109757008D01*
X133984129Y-109804462D01*
X133984132Y-109804463D01*
X134125510Y-109814134D01*
X134264254Y-109785303D01*
X134390074Y-109720108D01*
X134493639Y-109623385D01*
X134567268Y-109502307D01*
X134605500Y-109365854D01*
X134605500Y-108029736D01*
X134591051Y-107924612D01*
X134534595Y-107794636D01*
X134445164Y-107684712D01*
X134445163Y-107684711D01*
X134443313Y-107682437D01*
X134416274Y-107618011D01*
X134415500Y-107604181D01*
X134415500Y-105846187D01*
X134435185Y-105779148D01*
X134451815Y-105758510D01*
X134578314Y-105632010D01*
X134639637Y-105598526D01*
X134682181Y-105596753D01*
X134749999Y-105605682D01*
X134750000Y-105605682D01*
X134750001Y-105605682D01*
X134802254Y-105598802D01*
X134906762Y-105585044D01*
X135052841Y-105524536D01*
X135178282Y-105428282D01*
X135274536Y-105302841D01*
X135335044Y-105156762D01*
X135355682Y-105000000D01*
X135349099Y-104950000D01*
X135335044Y-104843239D01*
X135335044Y-104843238D01*
X135274536Y-104697159D01*
X135237704Y-104649158D01*
X135212511Y-104583992D01*
X135226549Y-104515547D01*
X135275363Y-104465557D01*
X135343454Y-104449893D01*
X135344386Y-104449952D01*
X135405510Y-104454134D01*
X135544254Y-104425303D01*
X135670074Y-104360108D01*
X135773639Y-104263385D01*
X135847268Y-104142307D01*
X135881423Y-104020403D01*
X135918463Y-103961163D01*
X135981654Y-103931351D01*
X136050930Y-103940434D01*
X136104299Y-103985530D01*
X136123669Y-104036974D01*
X136128949Y-104075389D01*
X136161093Y-104149392D01*
X136185405Y-104205364D01*
X136249545Y-104284201D01*
X136274836Y-104315288D01*
X136274841Y-104315292D01*
X136390604Y-104397007D01*
X136390605Y-104397008D01*
X136524129Y-104444462D01*
X136524132Y-104444463D01*
X136665510Y-104454134D01*
X136804254Y-104425303D01*
X136930074Y-104360108D01*
X137033639Y-104263385D01*
X137107268Y-104142307D01*
X137145500Y-104005854D01*
X137145500Y-104005851D01*
X137147788Y-103997686D01*
X137150833Y-103998539D01*
X137173196Y-103948700D01*
X137231723Y-103910537D01*
X137301591Y-103910074D01*
X137360618Y-103947458D01*
X137390063Y-104010820D01*
X137390290Y-104012394D01*
X137398949Y-104075389D01*
X137455404Y-104205363D01*
X137455406Y-104205366D01*
X137512637Y-104275711D01*
X137539676Y-104340137D01*
X137527592Y-104408954D01*
X137480220Y-104460312D01*
X137463905Y-104468527D01*
X137447161Y-104475462D01*
X137321718Y-104571718D01*
X137225463Y-104697160D01*
X137164956Y-104843237D01*
X137164955Y-104843239D01*
X137144318Y-104999998D01*
X137144318Y-105000001D01*
X137153246Y-105067818D01*
X137142480Y-105136853D01*
X137117988Y-105171684D01*
X136411803Y-105877870D01*
X136407814Y-105881525D01*
X136376805Y-105907545D01*
X136356562Y-105942606D01*
X136353656Y-105947166D01*
X136330446Y-105980313D01*
X136328206Y-105985117D01*
X136321229Y-106001961D01*
X136319410Y-106006959D01*
X136312383Y-106046811D01*
X136311212Y-106052091D01*
X136300735Y-106091191D01*
X136304264Y-106131513D01*
X136304500Y-106136920D01*
X136304500Y-106749662D01*
X136284815Y-106816701D01*
X136232011Y-106862456D01*
X136162853Y-106872400D01*
X136099297Y-106843375D01*
X136065939Y-106797115D01*
X136024536Y-106697160D01*
X136024536Y-106697159D01*
X135928282Y-106571718D01*
X135802841Y-106475464D01*
X135656762Y-106414956D01*
X135656760Y-106414955D01*
X135500001Y-106394318D01*
X135499999Y-106394318D01*
X135343239Y-106414955D01*
X135343237Y-106414956D01*
X135197160Y-106475463D01*
X135071718Y-106571718D01*
X134975463Y-106697160D01*
X134914956Y-106843237D01*
X134914955Y-106843239D01*
X134894318Y-106999998D01*
X134894318Y-107000001D01*
X134914955Y-107156760D01*
X134914957Y-107156765D01*
X134975461Y-107302836D01*
X134975464Y-107302842D01*
X135018875Y-107359415D01*
X135044070Y-107424584D01*
X135044500Y-107434902D01*
X135044500Y-107609776D01*
X135024815Y-107676815D01*
X135005138Y-107700398D01*
X134966362Y-107736613D01*
X134892733Y-107857690D01*
X134892732Y-107857692D01*
X134892732Y-107857693D01*
X134854500Y-107994146D01*
X134854500Y-109330264D01*
X134868949Y-109435388D01*
X134925405Y-109565364D01*
X134983707Y-109637026D01*
X135014836Y-109675288D01*
X135014841Y-109675292D01*
X135130604Y-109757007D01*
X135130605Y-109757008D01*
X135264129Y-109804462D01*
X135264132Y-109804463D01*
X135405510Y-109814134D01*
X135544254Y-109785303D01*
X135670074Y-109720108D01*
X135773639Y-109623385D01*
X135847268Y-109502307D01*
X135881423Y-109380403D01*
X135918463Y-109321163D01*
X135981654Y-109291351D01*
X136050930Y-109300434D01*
X136104299Y-109345530D01*
X136123669Y-109396974D01*
X136128949Y-109435389D01*
X136166712Y-109522329D01*
X136185405Y-109565364D01*
X136243707Y-109637026D01*
X136274836Y-109675288D01*
X136274841Y-109675292D01*
X136390604Y-109757007D01*
X136390605Y-109757008D01*
X136524129Y-109804462D01*
X136524132Y-109804463D01*
X136665510Y-109814134D01*
X136804254Y-109785303D01*
X136930074Y-109720108D01*
X136993323Y-109661037D01*
X137055752Y-109629666D01*
X137125233Y-109637026D01*
X137179705Y-109680782D01*
X137182953Y-109685689D01*
X137258775Y-109806360D01*
X137388639Y-109936224D01*
X137544147Y-110033936D01*
X137650000Y-110070974D01*
X137650000Y-108930000D01*
X138150000Y-108930000D01*
X138150000Y-110070973D01*
X138255852Y-110033936D01*
X138411360Y-109936224D01*
X138541224Y-109806360D01*
X138638937Y-109650849D01*
X138699592Y-109477509D01*
X138699595Y-109477496D01*
X138714999Y-109340776D01*
X138715000Y-109340772D01*
X138715000Y-108930000D01*
X138150000Y-108930000D01*
X137650000Y-108930000D01*
X137650000Y-108519752D01*
X141459500Y-108519752D01*
X141471131Y-108578229D01*
X141471132Y-108578230D01*
X141515447Y-108644552D01*
X141581769Y-108688867D01*
X141581770Y-108688868D01*
X141640247Y-108700499D01*
X141640250Y-108700500D01*
X141640252Y-108700500D01*
X143939750Y-108700500D01*
X143939751Y-108700499D01*
X143954568Y-108697552D01*
X143998229Y-108688868D01*
X143998229Y-108688867D01*
X143998231Y-108688867D01*
X144064552Y-108644552D01*
X144108867Y-108578231D01*
X144108867Y-108578229D01*
X144108868Y-108578229D01*
X144120499Y-108519752D01*
X145879500Y-108519752D01*
X145891131Y-108578229D01*
X145891132Y-108578230D01*
X145935447Y-108644552D01*
X146001769Y-108688867D01*
X146001770Y-108688868D01*
X146060247Y-108700499D01*
X146060250Y-108700500D01*
X146060252Y-108700500D01*
X148359750Y-108700500D01*
X148359751Y-108700499D01*
X148374568Y-108697552D01*
X148418229Y-108688868D01*
X148418229Y-108688867D01*
X148418231Y-108688867D01*
X148484552Y-108644552D01*
X148528867Y-108578231D01*
X148528867Y-108578229D01*
X148528868Y-108578229D01*
X148540499Y-108519752D01*
X148540500Y-108519750D01*
X148540500Y-107480249D01*
X148540499Y-107480247D01*
X148528868Y-107421770D01*
X148528867Y-107421769D01*
X148484552Y-107355447D01*
X148481043Y-107353103D01*
X148436237Y-107299492D01*
X148427528Y-107230167D01*
X148457682Y-107167139D01*
X148481043Y-107146897D01*
X148484552Y-107144552D01*
X148496670Y-107126416D01*
X148528867Y-107078231D01*
X148528867Y-107078229D01*
X148528868Y-107078229D01*
X148540499Y-107019752D01*
X148540500Y-107019750D01*
X148540500Y-105980249D01*
X148540499Y-105980247D01*
X148528868Y-105921770D01*
X148528867Y-105921769D01*
X148484552Y-105855447D01*
X148481043Y-105853103D01*
X148436237Y-105799492D01*
X148427528Y-105730167D01*
X148457682Y-105667139D01*
X148481043Y-105646897D01*
X148484552Y-105644552D01*
X148502616Y-105617518D01*
X148528867Y-105578231D01*
X148528867Y-105578229D01*
X148528868Y-105578229D01*
X148539432Y-105525117D01*
X148540500Y-105519748D01*
X148540500Y-104480252D01*
X148540500Y-104480249D01*
X148540499Y-104480247D01*
X148528868Y-104421770D01*
X148528867Y-104421769D01*
X148484552Y-104355447D01*
X148418230Y-104311132D01*
X148418229Y-104311131D01*
X148359752Y-104299500D01*
X148359748Y-104299500D01*
X146060252Y-104299500D01*
X146060247Y-104299500D01*
X146001770Y-104311131D01*
X146001769Y-104311132D01*
X145935447Y-104355447D01*
X145891132Y-104421769D01*
X145891131Y-104421770D01*
X145879500Y-104480247D01*
X145879500Y-105519752D01*
X145891131Y-105578229D01*
X145891132Y-105578230D01*
X145935448Y-105644553D01*
X145938959Y-105646899D01*
X145983764Y-105700512D01*
X145992470Y-105769837D01*
X145962314Y-105832864D01*
X145938959Y-105853101D01*
X145935448Y-105855446D01*
X145891132Y-105921769D01*
X145891131Y-105921770D01*
X145879500Y-105980247D01*
X145879500Y-107019752D01*
X145891131Y-107078229D01*
X145891132Y-107078230D01*
X145935448Y-107144553D01*
X145938959Y-107146899D01*
X145983764Y-107200512D01*
X145992470Y-107269837D01*
X145962314Y-107332864D01*
X145938959Y-107353101D01*
X145935448Y-107355446D01*
X145891132Y-107421769D01*
X145891131Y-107421770D01*
X145879500Y-107480247D01*
X145879500Y-108519752D01*
X144120499Y-108519752D01*
X144120500Y-108519750D01*
X144120500Y-107480249D01*
X144120499Y-107480247D01*
X144108868Y-107421770D01*
X144108867Y-107421769D01*
X144064552Y-107355447D01*
X144061043Y-107353103D01*
X144016237Y-107299492D01*
X144007528Y-107230167D01*
X144037682Y-107167139D01*
X144061043Y-107146897D01*
X144064552Y-107144552D01*
X144076670Y-107126416D01*
X144108867Y-107078231D01*
X144108867Y-107078229D01*
X144108868Y-107078229D01*
X144120499Y-107019752D01*
X144120500Y-107019750D01*
X144120500Y-105980249D01*
X144120499Y-105980247D01*
X144108868Y-105921770D01*
X144108867Y-105921769D01*
X144064552Y-105855447D01*
X144061043Y-105853103D01*
X144016237Y-105799492D01*
X144007528Y-105730167D01*
X144037682Y-105667139D01*
X144061043Y-105646897D01*
X144064552Y-105644552D01*
X144082616Y-105617518D01*
X144108867Y-105578231D01*
X144108867Y-105578229D01*
X144108868Y-105578229D01*
X144119432Y-105525117D01*
X144120500Y-105519748D01*
X144120500Y-104480252D01*
X144120500Y-104480249D01*
X144120499Y-104480247D01*
X144108868Y-104421770D01*
X144108867Y-104421769D01*
X144064552Y-104355447D01*
X143998230Y-104311132D01*
X143998229Y-104311131D01*
X143939752Y-104299500D01*
X143939748Y-104299500D01*
X141640252Y-104299500D01*
X141640247Y-104299500D01*
X141581770Y-104311131D01*
X141581769Y-104311132D01*
X141515447Y-104355447D01*
X141471132Y-104421769D01*
X141471131Y-104421770D01*
X141459500Y-104480247D01*
X141459500Y-105519752D01*
X141471131Y-105578229D01*
X141471132Y-105578230D01*
X141515448Y-105644553D01*
X141518959Y-105646899D01*
X141563764Y-105700512D01*
X141572470Y-105769837D01*
X141542314Y-105832864D01*
X141518959Y-105853101D01*
X141515448Y-105855446D01*
X141471132Y-105921769D01*
X141471131Y-105921770D01*
X141459500Y-105980247D01*
X141459500Y-107019752D01*
X141471131Y-107078229D01*
X141471132Y-107078230D01*
X141515448Y-107144553D01*
X141518959Y-107146899D01*
X141563764Y-107200512D01*
X141572470Y-107269837D01*
X141542314Y-107332864D01*
X141518959Y-107353101D01*
X141515448Y-107355446D01*
X141471132Y-107421769D01*
X141471131Y-107421770D01*
X141459500Y-107480247D01*
X141459500Y-108519752D01*
X137650000Y-108519752D01*
X137650000Y-107289024D01*
X138150000Y-107289024D01*
X138150000Y-108430000D01*
X138715000Y-108430000D01*
X138715000Y-108019227D01*
X138714999Y-108019223D01*
X138699595Y-107882503D01*
X138699592Y-107882490D01*
X138638937Y-107709150D01*
X138541224Y-107553639D01*
X138411360Y-107423775D01*
X138255855Y-107326065D01*
X138255851Y-107326063D01*
X138150000Y-107289024D01*
X137650000Y-107289024D01*
X137649999Y-107289024D01*
X137544148Y-107326063D01*
X137544144Y-107326065D01*
X137388639Y-107423775D01*
X137258775Y-107553639D01*
X137185098Y-107670896D01*
X137132763Y-107717187D01*
X137063709Y-107727835D01*
X136999861Y-107699460D01*
X136983886Y-107683142D01*
X136983282Y-107682399D01*
X136956268Y-107617962D01*
X136955500Y-107604181D01*
X136955500Y-106306187D01*
X136975185Y-106239148D01*
X136991815Y-106218510D01*
X137578315Y-105632009D01*
X137639636Y-105598526D01*
X137682180Y-105596753D01*
X137749999Y-105605682D01*
X137750000Y-105605682D01*
X137750001Y-105605682D01*
X137802254Y-105598802D01*
X137906762Y-105585044D01*
X138052841Y-105524536D01*
X138178282Y-105428282D01*
X138274536Y-105302841D01*
X138335044Y-105156762D01*
X138355682Y-105000000D01*
X138349099Y-104950000D01*
X138335044Y-104843239D01*
X138335044Y-104843238D01*
X138274536Y-104697159D01*
X138178282Y-104571718D01*
X138177193Y-104570882D01*
X138176507Y-104569943D01*
X138172535Y-104565971D01*
X138173154Y-104565351D01*
X138135991Y-104514458D01*
X138131834Y-104444712D01*
X138166045Y-104383791D01*
X138195630Y-104362410D01*
X138200074Y-104360108D01*
X138303639Y-104263385D01*
X138377268Y-104142307D01*
X138415500Y-104005854D01*
X138415500Y-102669736D01*
X138401051Y-102564612D01*
X138344595Y-102434636D01*
X138255164Y-102324712D01*
X138255163Y-102324711D01*
X138253313Y-102322437D01*
X138226274Y-102258011D01*
X138225500Y-102244181D01*
X138225500Y-100736188D01*
X138245185Y-100669149D01*
X138261819Y-100648507D01*
X141993508Y-96916819D01*
X142054831Y-96883334D01*
X142081189Y-96880500D01*
X154909417Y-96880500D01*
X154976456Y-96900185D01*
X155022211Y-96952989D01*
X155023979Y-96957049D01*
X155024768Y-96958954D01*
X155122315Y-97141450D01*
X155122317Y-97141452D01*
X155253589Y-97301410D01*
X155350209Y-97380702D01*
X155413550Y-97432685D01*
X155596046Y-97530232D01*
X155794066Y-97590300D01*
X155794065Y-97590300D01*
X155812529Y-97592118D01*
X156000000Y-97610583D01*
X156205934Y-97590300D01*
X156403954Y-97530232D01*
X156586450Y-97432685D01*
X156746410Y-97301410D01*
X156877685Y-97141450D01*
X156975232Y-96958954D01*
X157035300Y-96760934D01*
X157055583Y-96555000D01*
X157035300Y-96349066D01*
X156975232Y-96151046D01*
X156877685Y-95968550D01*
X156797547Y-95870901D01*
X156746410Y-95808589D01*
X156586452Y-95677317D01*
X156586453Y-95677317D01*
X156586450Y-95677315D01*
X156403954Y-95579768D01*
X156205934Y-95519700D01*
X156205932Y-95519699D01*
X156205934Y-95519699D01*
X156000000Y-95499417D01*
X155794067Y-95519699D01*
X155596043Y-95579769D01*
X155485898Y-95638643D01*
X155413550Y-95677315D01*
X155413548Y-95677316D01*
X155413547Y-95677317D01*
X155253589Y-95808589D01*
X155122317Y-95968547D01*
X155024768Y-96151045D01*
X155023979Y-96152951D01*
X155023298Y-96153796D01*
X155021896Y-96156419D01*
X155021398Y-96156153D01*
X154980138Y-96207355D01*
X154913844Y-96229421D01*
X154909417Y-96229500D01*
X141911913Y-96229500D01*
X141906511Y-96229264D01*
X141899126Y-96228618D01*
X141866192Y-96225736D01*
X141866191Y-96225736D01*
X141827099Y-96236211D01*
X141821819Y-96237382D01*
X141781954Y-96244412D01*
X141776962Y-96246229D01*
X141760117Y-96253206D01*
X141755313Y-96255446D01*
X141722163Y-96278658D01*
X141717602Y-96281564D01*
X141682548Y-96301804D01*
X141682545Y-96301806D01*
X141682543Y-96301807D01*
X141682542Y-96301809D01*
X141656523Y-96332815D01*
X141652869Y-96336803D01*
X137681803Y-100307870D01*
X137677814Y-100311525D01*
X137646805Y-100337545D01*
X137626562Y-100372606D01*
X137623656Y-100377166D01*
X137600446Y-100410313D01*
X137598206Y-100415117D01*
X137591229Y-100431961D01*
X137589410Y-100436959D01*
X137582383Y-100476811D01*
X137581212Y-100482091D01*
X137570735Y-100521191D01*
X137574264Y-100561513D01*
X137574500Y-100566920D01*
X137574500Y-102249776D01*
X137554815Y-102316815D01*
X137535138Y-102340398D01*
X137496362Y-102376613D01*
X137422733Y-102497690D01*
X137422732Y-102497692D01*
X137422732Y-102497693D01*
X137384500Y-102634146D01*
X137384500Y-102634147D01*
X137382212Y-102642314D01*
X137379176Y-102641463D01*
X137356754Y-102691356D01*
X137298205Y-102729484D01*
X137228337Y-102729904D01*
X137169332Y-102692485D01*
X137139925Y-102629105D01*
X137139709Y-102627604D01*
X137136330Y-102603023D01*
X137131051Y-102564612D01*
X137074595Y-102434636D01*
X136985164Y-102324712D01*
X136985163Y-102324711D01*
X136983313Y-102322437D01*
X136956274Y-102258011D01*
X136955500Y-102244181D01*
X136955500Y-100521920D01*
X136955736Y-100516513D01*
X136959264Y-100476193D01*
X136948782Y-100437076D01*
X136947616Y-100431818D01*
X136940588Y-100391955D01*
X136940586Y-100391952D01*
X136940586Y-100391950D01*
X136938760Y-100386933D01*
X136931820Y-100370176D01*
X136929554Y-100365319D01*
X136929554Y-100365316D01*
X136906339Y-100332162D01*
X136903433Y-100327599D01*
X136883196Y-100292548D01*
X136883195Y-100292547D01*
X136883194Y-100292545D01*
X136852177Y-100266518D01*
X136848193Y-100262867D01*
X135174963Y-98589637D01*
X132922119Y-96336793D01*
X132918474Y-96332814D01*
X132892456Y-96301807D01*
X132892455Y-96301806D01*
X132881058Y-96295226D01*
X132857392Y-96281561D01*
X132852831Y-96278655D01*
X132839687Y-96269452D01*
X132819684Y-96255446D01*
X132819681Y-96255445D01*
X132814861Y-96253197D01*
X132798055Y-96246235D01*
X132793043Y-96244411D01*
X132753190Y-96237383D01*
X132747910Y-96236212D01*
X132708808Y-96225735D01*
X132673892Y-96228790D01*
X132668481Y-96229264D01*
X132663078Y-96229500D01*
X121090583Y-96229500D01*
X121023544Y-96209815D01*
X120977789Y-96157011D01*
X120976021Y-96152951D01*
X120975233Y-96151051D01*
X120975232Y-96151046D01*
X120877685Y-95968550D01*
X120797547Y-95870901D01*
X120746410Y-95808589D01*
X120586452Y-95677317D01*
X120586453Y-95677317D01*
X120586450Y-95677315D01*
X120403954Y-95579768D01*
X120205934Y-95519700D01*
X120205932Y-95519699D01*
X120205934Y-95519699D01*
X120000000Y-95499417D01*
X119794067Y-95519699D01*
X119596043Y-95579769D01*
X119485898Y-95638643D01*
X119413550Y-95677315D01*
X119413548Y-95677316D01*
X119413547Y-95677317D01*
X119253589Y-95808589D01*
X119122317Y-95968547D01*
X119024769Y-96151043D01*
X118964699Y-96349067D01*
X118944417Y-96555000D01*
X114861302Y-96555000D01*
X114789348Y-95870402D01*
X114729934Y-94926031D01*
X114710117Y-93980000D01*
X114729934Y-93033969D01*
X114771528Y-92372844D01*
X118650000Y-92372844D01*
X118656401Y-92432372D01*
X118656403Y-92432379D01*
X118706645Y-92567086D01*
X118706649Y-92567093D01*
X118792809Y-92682187D01*
X118792812Y-92682190D01*
X118907906Y-92768350D01*
X118907913Y-92768354D01*
X119042620Y-92818596D01*
X119042627Y-92818598D01*
X119102155Y-92824999D01*
X119102172Y-92825000D01*
X119213764Y-92825000D01*
X119280803Y-92844685D01*
X119326558Y-92897489D01*
X119336502Y-92966647D01*
X119307477Y-93030203D01*
X119288490Y-93047954D01*
X119187765Y-93124017D01*
X119187762Y-93124019D01*
X119037876Y-93288437D01*
X119037874Y-93288439D01*
X118920754Y-93477595D01*
X118920753Y-93477599D01*
X118840382Y-93685060D01*
X118799500Y-93903757D01*
X118799500Y-94126243D01*
X118840382Y-94344940D01*
X118920752Y-94552398D01*
X118920754Y-94552404D01*
X119037874Y-94741560D01*
X119037876Y-94741562D01*
X119187761Y-94905979D01*
X119365308Y-95040056D01*
X119365316Y-95040061D01*
X119564461Y-95139224D01*
X119564465Y-95139225D01*
X119564472Y-95139229D01*
X119778464Y-95200115D01*
X119944497Y-95215500D01*
X119944501Y-95215500D01*
X156055499Y-95215500D01*
X156055503Y-95215500D01*
X156221536Y-95200115D01*
X156435528Y-95139229D01*
X156634689Y-95040058D01*
X156812236Y-94905981D01*
X156962124Y-94741562D01*
X157079247Y-94552401D01*
X157159618Y-94344940D01*
X157200500Y-94126243D01*
X157200500Y-93903757D01*
X157159618Y-93685060D01*
X157079247Y-93477599D01*
X156962124Y-93288438D01*
X156949952Y-93275086D01*
X156812237Y-93124019D01*
X156812234Y-93124017D01*
X156711510Y-93047954D01*
X156669873Y-92991845D01*
X156665181Y-92922134D01*
X156698924Y-92860951D01*
X156760387Y-92827724D01*
X156786236Y-92825000D01*
X156897828Y-92825000D01*
X156897844Y-92824999D01*
X156957372Y-92818598D01*
X156957379Y-92818596D01*
X157092086Y-92768354D01*
X157092093Y-92768350D01*
X157207187Y-92682190D01*
X157207190Y-92682187D01*
X157293350Y-92567093D01*
X157293354Y-92567086D01*
X157343596Y-92432379D01*
X157343598Y-92432372D01*
X157349999Y-92372844D01*
X157350000Y-92372827D01*
X157350000Y-91725000D01*
X156433686Y-91725000D01*
X156459493Y-91684844D01*
X156500000Y-91546889D01*
X156500000Y-91403111D01*
X156459493Y-91265156D01*
X156433686Y-91225000D01*
X157350000Y-91225000D01*
X157350000Y-90577172D01*
X157349999Y-90577155D01*
X157343598Y-90517627D01*
X157343596Y-90517620D01*
X157293354Y-90382913D01*
X157293350Y-90382906D01*
X157207190Y-90267812D01*
X157207187Y-90267809D01*
X157092093Y-90181649D01*
X157092086Y-90181645D01*
X156957379Y-90131403D01*
X156957372Y-90131401D01*
X156897844Y-90125000D01*
X156250000Y-90125000D01*
X156250000Y-91039498D01*
X156142315Y-90990320D01*
X156035763Y-90975000D01*
X155964237Y-90975000D01*
X155857685Y-90990320D01*
X155750000Y-91039498D01*
X155750000Y-90125000D01*
X155102155Y-90125000D01*
X155042627Y-90131401D01*
X155042620Y-90131403D01*
X154907913Y-90181645D01*
X154907906Y-90181649D01*
X154792812Y-90267809D01*
X154792809Y-90267812D01*
X154706649Y-90382906D01*
X154706645Y-90382913D01*
X154656403Y-90517620D01*
X154656401Y-90517627D01*
X154650000Y-90577155D01*
X154650000Y-91225000D01*
X155566314Y-91225000D01*
X155540507Y-91265156D01*
X155500000Y-91403111D01*
X155500000Y-91546889D01*
X155540507Y-91684844D01*
X155566314Y-91725000D01*
X154650000Y-91725000D01*
X154650000Y-92372844D01*
X154656401Y-92432372D01*
X154656403Y-92432379D01*
X154706645Y-92567086D01*
X154706647Y-92567089D01*
X154743403Y-92616188D01*
X154767821Y-92681652D01*
X154752970Y-92749925D01*
X154703565Y-92799331D01*
X154644137Y-92814500D01*
X135509500Y-92814500D01*
X135442461Y-92794815D01*
X135396706Y-92742011D01*
X135385500Y-92690500D01*
X135385500Y-82569019D01*
X135405185Y-82501980D01*
X135421819Y-82481338D01*
X135603838Y-82299319D01*
X135665161Y-82265834D01*
X135691519Y-82263000D01*
X135969750Y-82263000D01*
X135969751Y-82262999D01*
X135984568Y-82260052D01*
X136028229Y-82251368D01*
X136028229Y-82251367D01*
X136028231Y-82251367D01*
X136094552Y-82207052D01*
X136138867Y-82140731D01*
X136138867Y-82140729D01*
X136138868Y-82140729D01*
X136150499Y-82082252D01*
X136150500Y-82082250D01*
X136150500Y-81700586D01*
X136161426Y-81649692D01*
X136161612Y-81649278D01*
X136173695Y-81622432D01*
X136204358Y-81455106D01*
X136194086Y-81285304D01*
X136156114Y-81163443D01*
X136150500Y-81126554D01*
X136150500Y-80742749D01*
X136150499Y-80742747D01*
X136138868Y-80684270D01*
X136138867Y-80684269D01*
X136094552Y-80617947D01*
X136028230Y-80573632D01*
X136028229Y-80573631D01*
X135969752Y-80562000D01*
X135969748Y-80562000D01*
X135030252Y-80562000D01*
X135030247Y-80562000D01*
X134971770Y-80573631D01*
X134971769Y-80573632D01*
X134905447Y-80617947D01*
X134861132Y-80684269D01*
X134861131Y-80684270D01*
X134849500Y-80742747D01*
X134849500Y-81020980D01*
X134829815Y-81088019D01*
X134813181Y-81108661D01*
X134205966Y-81715875D01*
X134203240Y-81718442D01*
X134156818Y-81759568D01*
X134121586Y-81810609D01*
X134119368Y-81813624D01*
X134081124Y-81862439D01*
X134081119Y-81862448D01*
X134076960Y-81871688D01*
X134065942Y-81891223D01*
X134060187Y-81899561D01*
X134060183Y-81899567D01*
X134060182Y-81899570D01*
X134060180Y-81899574D01*
X134060179Y-81899577D01*
X134038189Y-81957555D01*
X134036757Y-81961013D01*
X134011305Y-82017568D01*
X134009477Y-82027542D01*
X134003453Y-82049153D01*
X133999860Y-82058627D01*
X133999859Y-82058628D01*
X133992384Y-82120185D01*
X133991821Y-82123886D01*
X133980642Y-82184890D01*
X133980642Y-82184895D01*
X133984387Y-82246802D01*
X133984500Y-82250547D01*
X133984500Y-88550500D01*
X133964815Y-88617539D01*
X133912011Y-88663294D01*
X133860500Y-88674500D01*
X132375149Y-88674500D01*
X132308110Y-88654815D01*
X132305074Y-88652801D01*
X132297767Y-88647796D01*
X132297765Y-88647794D01*
X132201890Y-88605461D01*
X132194992Y-88602415D01*
X132169868Y-88599500D01*
X131896852Y-88599500D01*
X131829813Y-88579815D01*
X131798477Y-88550987D01*
X131737926Y-88472077D01*
X131612586Y-88375899D01*
X131466634Y-88315445D01*
X131466630Y-88315444D01*
X131349330Y-88300000D01*
X131292500Y-88300000D01*
X131292500Y-89699999D01*
X131349324Y-89699999D01*
X131466628Y-89684557D01*
X131466633Y-89684555D01*
X131612585Y-89624100D01*
X131737926Y-89527922D01*
X131798478Y-89449012D01*
X131854906Y-89407810D01*
X131896850Y-89400499D01*
X132169864Y-89400499D01*
X132169879Y-89400497D01*
X132169882Y-89400497D01*
X132194987Y-89397586D01*
X132194988Y-89397585D01*
X132194991Y-89397585D01*
X132297765Y-89352206D01*
X132297769Y-89352201D01*
X132305074Y-89347199D01*
X132371506Y-89325554D01*
X132375149Y-89325500D01*
X133860500Y-89325500D01*
X133927539Y-89345185D01*
X133973294Y-89397989D01*
X133984500Y-89449500D01*
X133984500Y-92690500D01*
X133964815Y-92757539D01*
X133912011Y-92803294D01*
X133860500Y-92814500D01*
X121355863Y-92814500D01*
X121288824Y-92794815D01*
X121243069Y-92742011D01*
X121233125Y-92672853D01*
X121256597Y-92616188D01*
X121293352Y-92567089D01*
X121293354Y-92567086D01*
X121343596Y-92432379D01*
X121343598Y-92432372D01*
X121349999Y-92372844D01*
X121350000Y-92372827D01*
X121350000Y-91725000D01*
X120433686Y-91725000D01*
X120459493Y-91684844D01*
X120500000Y-91546889D01*
X120500000Y-91403111D01*
X120459493Y-91265156D01*
X120433686Y-91225000D01*
X121350000Y-91225000D01*
X121350000Y-90577172D01*
X121349999Y-90577155D01*
X121343598Y-90517627D01*
X121343596Y-90517620D01*
X121293354Y-90382913D01*
X121293350Y-90382906D01*
X121207190Y-90267812D01*
X121207187Y-90267809D01*
X121092093Y-90181649D01*
X121092086Y-90181645D01*
X120957379Y-90131403D01*
X120957372Y-90131401D01*
X120897844Y-90125000D01*
X120250000Y-90125000D01*
X120250000Y-91039498D01*
X120142315Y-90990320D01*
X120035763Y-90975000D01*
X119964237Y-90975000D01*
X119857685Y-90990320D01*
X119750000Y-91039498D01*
X119750000Y-90125000D01*
X119102155Y-90125000D01*
X119042627Y-90131401D01*
X119042620Y-90131403D01*
X118907913Y-90181645D01*
X118907906Y-90181649D01*
X118792812Y-90267809D01*
X118792809Y-90267812D01*
X118706649Y-90382906D01*
X118706645Y-90382913D01*
X118656403Y-90517620D01*
X118656401Y-90517627D01*
X118650000Y-90577155D01*
X118650000Y-91225000D01*
X119566314Y-91225000D01*
X119540507Y-91265156D01*
X119500000Y-91403111D01*
X119500000Y-91546889D01*
X119540507Y-91684844D01*
X119566314Y-91725000D01*
X118650000Y-91725000D01*
X118650000Y-92372844D01*
X114771528Y-92372844D01*
X114789348Y-92089598D01*
X114888257Y-91148543D01*
X115026487Y-90212455D01*
X115203794Y-89282977D01*
X115223256Y-89200001D01*
X130282988Y-89200001D01*
X130290442Y-89256627D01*
X130290444Y-89256633D01*
X130350899Y-89402585D01*
X130447075Y-89527924D01*
X130572413Y-89624100D01*
X130718365Y-89684554D01*
X130718369Y-89684555D01*
X130835676Y-89699999D01*
X130892499Y-89699998D01*
X130892500Y-89699998D01*
X130892500Y-89200000D01*
X130282990Y-89200000D01*
X130282988Y-89200001D01*
X115223256Y-89200001D01*
X115317075Y-88800000D01*
X130282987Y-88800000D01*
X130892500Y-88800000D01*
X130892500Y-88300000D01*
X130892499Y-88299999D01*
X130835676Y-88300000D01*
X130718371Y-88315442D01*
X130718366Y-88315444D01*
X130572414Y-88375899D01*
X130447075Y-88472075D01*
X130350899Y-88597413D01*
X130290444Y-88743368D01*
X130282987Y-88800000D01*
X115317075Y-88800000D01*
X115419868Y-88361739D01*
X115674331Y-87450358D01*
X115966735Y-86550431D01*
X116296567Y-85663539D01*
X116663249Y-84791236D01*
X117066138Y-83935054D01*
X117504526Y-83096494D01*
X117977646Y-82277028D01*
X118484666Y-81478092D01*
X119024697Y-80701089D01*
X119596792Y-79947382D01*
X120199947Y-79218292D01*
X120328350Y-79075686D01*
X120387837Y-79039037D01*
X120457694Y-79040368D01*
X120515742Y-79079254D01*
X120543552Y-79143351D01*
X120544500Y-79158658D01*
X120544500Y-84126007D01*
X120549197Y-84169686D01*
X120560402Y-84221193D01*
X120562889Y-84231370D01*
X120562890Y-84231373D01*
X120605900Y-84312085D01*
X120651655Y-84364889D01*
X120669246Y-84382843D01*
X120669247Y-84382844D01*
X120669249Y-84382845D01*
X120749059Y-84427488D01*
X120749063Y-84427490D01*
X120816102Y-84447175D01*
X120874000Y-84455500D01*
X120874004Y-84455500D01*
X124875991Y-84455500D01*
X124876000Y-84455500D01*
X124919684Y-84450803D01*
X124945439Y-84445200D01*
X124971193Y-84439598D01*
X124975374Y-84438575D01*
X124981373Y-84437110D01*
X125062085Y-84394100D01*
X125114889Y-84348345D01*
X125132843Y-84330754D01*
X125177490Y-84250937D01*
X125197175Y-84183898D01*
X125205500Y-84126000D01*
X125205500Y-79329500D01*
X125225185Y-79262461D01*
X125277989Y-79216706D01*
X125329500Y-79205500D01*
X125805500Y-79205500D01*
X125872539Y-79225185D01*
X125918294Y-79277989D01*
X125929500Y-79329500D01*
X125929500Y-80219752D01*
X125941131Y-80278229D01*
X125941132Y-80278230D01*
X125985448Y-80344553D01*
X125988959Y-80346899D01*
X126033764Y-80400512D01*
X126042470Y-80469837D01*
X126012314Y-80532864D01*
X125988959Y-80553101D01*
X125985448Y-80555446D01*
X125941132Y-80621769D01*
X125941131Y-80621770D01*
X125929500Y-80680247D01*
X125929500Y-81719752D01*
X125941131Y-81778229D01*
X125941132Y-81778230D01*
X125985448Y-81844553D01*
X125988959Y-81846899D01*
X126033764Y-81900512D01*
X126042470Y-81969837D01*
X126012314Y-82032864D01*
X125988959Y-82053101D01*
X125985448Y-82055446D01*
X125941132Y-82121769D01*
X125941131Y-82121770D01*
X125929500Y-82180247D01*
X125929500Y-83219752D01*
X125941131Y-83278229D01*
X125941132Y-83278230D01*
X125985447Y-83344552D01*
X126051769Y-83388867D01*
X126051770Y-83388868D01*
X126110247Y-83400499D01*
X126110250Y-83400500D01*
X126110252Y-83400500D01*
X128409750Y-83400500D01*
X128409751Y-83400499D01*
X128424568Y-83397552D01*
X128468229Y-83388868D01*
X128468229Y-83388867D01*
X128468231Y-83388867D01*
X128534552Y-83344552D01*
X128578867Y-83278231D01*
X128578867Y-83278229D01*
X128578868Y-83278229D01*
X128590499Y-83219752D01*
X128590500Y-83219750D01*
X128590500Y-82180249D01*
X128590499Y-82180247D01*
X128578868Y-82121770D01*
X128578867Y-82121769D01*
X128534552Y-82055447D01*
X128531043Y-82053103D01*
X128486237Y-81999492D01*
X128477528Y-81930167D01*
X128507682Y-81867139D01*
X128531043Y-81846897D01*
X128534552Y-81844552D01*
X128578867Y-81778231D01*
X128578867Y-81778229D01*
X128578868Y-81778229D01*
X128590499Y-81719752D01*
X128590500Y-81719750D01*
X128590500Y-80680249D01*
X128590499Y-80680247D01*
X128578868Y-80621770D01*
X128578867Y-80621769D01*
X128534552Y-80555447D01*
X128531043Y-80553103D01*
X128486237Y-80499492D01*
X128477528Y-80430167D01*
X128507682Y-80367139D01*
X128531043Y-80346897D01*
X128534552Y-80344552D01*
X128578867Y-80278231D01*
X128578867Y-80278229D01*
X128578868Y-80278229D01*
X128590499Y-80219752D01*
X128590500Y-80219750D01*
X128590500Y-79329500D01*
X128610185Y-79262461D01*
X128662989Y-79216706D01*
X128714500Y-79205500D01*
X137170500Y-79205500D01*
X137237539Y-79225185D01*
X137283294Y-79277989D01*
X137294500Y-79329500D01*
X137294500Y-80301927D01*
X137298046Y-80330160D01*
X137300883Y-80352752D01*
X137316051Y-80412175D01*
X137321202Y-80429231D01*
X137321203Y-80429233D01*
X137365351Y-80499492D01*
X137369859Y-80506667D01*
X137419265Y-80556072D01*
X137438094Y-80572726D01*
X137520894Y-80611564D01*
X137561018Y-80620292D01*
X137589161Y-80626414D01*
X137589160Y-80626414D01*
X137595563Y-80627401D01*
X137614009Y-80630246D01*
X137704662Y-80618154D01*
X137704664Y-80618153D01*
X137709104Y-80617561D01*
X137778158Y-80628208D01*
X137830493Y-80674499D01*
X137849500Y-80740472D01*
X137849500Y-81126554D01*
X137843886Y-81163443D01*
X137805914Y-81285303D01*
X137795642Y-81455103D01*
X137795642Y-81455105D01*
X137826304Y-81622431D01*
X137826306Y-81622435D01*
X137838574Y-81649692D01*
X137849500Y-81700586D01*
X137849500Y-82082252D01*
X137861131Y-82140729D01*
X137861132Y-82140730D01*
X137905447Y-82207052D01*
X137971769Y-82251367D01*
X137971770Y-82251368D01*
X138030247Y-82262999D01*
X138030250Y-82263000D01*
X138030252Y-82263000D01*
X138308481Y-82263000D01*
X138375520Y-82282685D01*
X138396162Y-82299319D01*
X139513181Y-83416338D01*
X139546666Y-83477661D01*
X139549500Y-83504019D01*
X139549500Y-88158480D01*
X139529815Y-88225519D01*
X139513181Y-88246161D01*
X139224712Y-88534629D01*
X139146121Y-88634944D01*
X139076306Y-88790064D01*
X139076304Y-88790068D01*
X139064381Y-88855135D01*
X139045642Y-88957394D01*
X139055914Y-89127196D01*
X139106522Y-89289606D01*
X139173559Y-89400499D01*
X139194530Y-89435188D01*
X139314811Y-89555469D01*
X139314813Y-89555470D01*
X139314815Y-89555472D01*
X139460394Y-89643478D01*
X139622804Y-89694086D01*
X139792606Y-89704358D01*
X139959932Y-89673695D01*
X140115057Y-89603878D01*
X140215367Y-89525290D01*
X140378839Y-89361817D01*
X140440161Y-89328334D01*
X140466519Y-89325500D01*
X141975500Y-89325500D01*
X142042539Y-89345185D01*
X142088294Y-89397989D01*
X142099500Y-89449500D01*
X142099500Y-89529269D01*
X142102353Y-89559699D01*
X142102353Y-89559701D01*
X142147206Y-89687880D01*
X142147207Y-89687882D01*
X142227850Y-89797150D01*
X142337118Y-89877793D01*
X142379845Y-89892744D01*
X142465299Y-89922646D01*
X142495730Y-89925500D01*
X142495734Y-89925500D01*
X143104270Y-89925500D01*
X143134699Y-89922646D01*
X143134701Y-89922646D01*
X143198790Y-89900219D01*
X143262882Y-89877793D01*
X143372150Y-89797150D01*
X143452793Y-89687882D01*
X143475158Y-89623964D01*
X143515877Y-89567192D01*
X143580830Y-89541444D01*
X143649392Y-89554900D01*
X143699795Y-89603287D01*
X143709904Y-89625917D01*
X143765642Y-89794121D01*
X143765643Y-89794124D01*
X143857684Y-89943345D01*
X143981654Y-90067315D01*
X144130875Y-90159356D01*
X144130880Y-90159358D01*
X144297302Y-90214505D01*
X144297309Y-90214506D01*
X144400019Y-90224999D01*
X144449999Y-90224998D01*
X144450000Y-90224998D01*
X144450000Y-89250000D01*
X144950000Y-89250000D01*
X144950000Y-90224999D01*
X144999972Y-90224999D01*
X144999986Y-90224998D01*
X145102697Y-90214505D01*
X145269119Y-90159358D01*
X145269124Y-90159356D01*
X145418345Y-90067315D01*
X145542315Y-89943345D01*
X145634356Y-89794124D01*
X145634358Y-89794119D01*
X145689505Y-89627697D01*
X145689506Y-89627690D01*
X145699999Y-89524986D01*
X145700000Y-89524973D01*
X145700000Y-89250000D01*
X144950000Y-89250000D01*
X144450000Y-89250000D01*
X144450000Y-87775000D01*
X144950000Y-87775000D01*
X144950000Y-88750000D01*
X145699999Y-88750000D01*
X145699999Y-88475028D01*
X145699998Y-88475013D01*
X145689505Y-88372302D01*
X145634358Y-88205880D01*
X145634356Y-88205875D01*
X145542315Y-88056654D01*
X145418345Y-87932684D01*
X145269124Y-87840643D01*
X145269119Y-87840641D01*
X145102697Y-87785494D01*
X145102690Y-87785493D01*
X144999986Y-87775000D01*
X144950000Y-87775000D01*
X144450000Y-87775000D01*
X144449999Y-87774999D01*
X144400029Y-87775000D01*
X144400011Y-87775001D01*
X144297302Y-87785494D01*
X144130880Y-87840641D01*
X144130875Y-87840643D01*
X143981654Y-87932684D01*
X143857684Y-88056654D01*
X143765643Y-88205875D01*
X143765641Y-88205880D01*
X143709905Y-88374082D01*
X143670132Y-88431527D01*
X143605617Y-88458350D01*
X143536841Y-88446035D01*
X143485641Y-88398492D01*
X143475158Y-88376033D01*
X143453957Y-88315445D01*
X143452793Y-88312118D01*
X143372150Y-88202850D01*
X143262882Y-88122207D01*
X143262880Y-88122206D01*
X143134700Y-88077353D01*
X143104270Y-88074500D01*
X143104266Y-88074500D01*
X142495734Y-88074500D01*
X142495730Y-88074500D01*
X142465300Y-88077353D01*
X142465298Y-88077353D01*
X142337119Y-88122206D01*
X142337117Y-88122207D01*
X142227850Y-88202850D01*
X142147207Y-88312117D01*
X142147206Y-88312119D01*
X142102353Y-88440298D01*
X142102353Y-88440300D01*
X142099500Y-88470730D01*
X142099500Y-88550500D01*
X142079815Y-88617539D01*
X142027011Y-88663294D01*
X141975500Y-88674500D01*
X141078107Y-88674500D01*
X141011068Y-88654815D01*
X140965313Y-88602011D01*
X140955643Y-88550042D01*
X140954811Y-88550093D01*
X140954405Y-88543389D01*
X140954334Y-88543005D01*
X140954358Y-88542606D01*
X140950613Y-88480696D01*
X140950500Y-88476951D01*
X140950500Y-83344752D01*
X146502000Y-83344752D01*
X146513631Y-83403229D01*
X146513632Y-83403230D01*
X146557947Y-83469552D01*
X146624269Y-83513867D01*
X146624270Y-83513868D01*
X146682747Y-83525499D01*
X146682750Y-83525500D01*
X146682752Y-83525500D01*
X148982250Y-83525500D01*
X148982251Y-83525499D01*
X148997068Y-83522552D01*
X149040729Y-83513868D01*
X149040729Y-83513867D01*
X149040731Y-83513867D01*
X149107052Y-83469552D01*
X149151367Y-83403231D01*
X149151367Y-83403229D01*
X149151368Y-83403229D01*
X149162999Y-83344752D01*
X150922000Y-83344752D01*
X150933631Y-83403229D01*
X150933632Y-83403230D01*
X150977947Y-83469552D01*
X151044269Y-83513867D01*
X151044270Y-83513868D01*
X151102747Y-83525499D01*
X151102750Y-83525500D01*
X151102752Y-83525500D01*
X153402250Y-83525500D01*
X153402251Y-83525499D01*
X153417068Y-83522552D01*
X153460729Y-83513868D01*
X153460729Y-83513867D01*
X153460731Y-83513867D01*
X153527052Y-83469552D01*
X153571367Y-83403231D01*
X153571367Y-83403229D01*
X153571368Y-83403229D01*
X153582999Y-83344752D01*
X153583000Y-83344750D01*
X153583000Y-82305249D01*
X153582999Y-82305247D01*
X153571368Y-82246770D01*
X153571367Y-82246769D01*
X153527052Y-82180447D01*
X153523543Y-82178103D01*
X153478737Y-82124492D01*
X153470028Y-82055167D01*
X153500182Y-81992139D01*
X153523543Y-81971897D01*
X153527052Y-81969552D01*
X153535068Y-81957555D01*
X153571367Y-81903231D01*
X153571367Y-81903229D01*
X153571368Y-81903229D01*
X153582572Y-81846899D01*
X153583000Y-81844748D01*
X153583000Y-80805252D01*
X153583000Y-80805249D01*
X153582999Y-80805247D01*
X153571368Y-80746770D01*
X153571367Y-80746769D01*
X153527052Y-80680447D01*
X153523543Y-80678103D01*
X153478737Y-80624492D01*
X153470028Y-80555167D01*
X153500182Y-80492139D01*
X153523543Y-80471897D01*
X153527052Y-80469552D01*
X153532298Y-80461701D01*
X153571367Y-80403231D01*
X153571367Y-80403229D01*
X153571368Y-80403229D01*
X153582572Y-80346899D01*
X153583000Y-80344748D01*
X153583000Y-79305252D01*
X153583000Y-79305249D01*
X153582999Y-79305247D01*
X153571368Y-79246770D01*
X153571367Y-79246769D01*
X153527052Y-79180447D01*
X153460730Y-79136132D01*
X153460729Y-79136131D01*
X153402252Y-79124500D01*
X153402248Y-79124500D01*
X151102752Y-79124500D01*
X151102747Y-79124500D01*
X151044270Y-79136131D01*
X151044269Y-79136132D01*
X150977947Y-79180447D01*
X150933632Y-79246769D01*
X150933631Y-79246770D01*
X150922000Y-79305247D01*
X150922000Y-80344752D01*
X150933631Y-80403229D01*
X150933632Y-80403230D01*
X150977948Y-80469553D01*
X150981459Y-80471899D01*
X151026264Y-80525512D01*
X151034970Y-80594837D01*
X151004814Y-80657864D01*
X150981459Y-80678101D01*
X150977948Y-80680446D01*
X150933632Y-80746769D01*
X150933631Y-80746770D01*
X150922000Y-80805247D01*
X150922000Y-81844752D01*
X150933631Y-81903229D01*
X150933632Y-81903230D01*
X150977948Y-81969553D01*
X150981459Y-81971899D01*
X151026264Y-82025512D01*
X151034970Y-82094837D01*
X151004814Y-82157864D01*
X150981459Y-82178101D01*
X150977948Y-82180446D01*
X150933632Y-82246769D01*
X150933631Y-82246770D01*
X150922000Y-82305247D01*
X150922000Y-83344752D01*
X149162999Y-83344752D01*
X149163000Y-83344750D01*
X149163000Y-82305249D01*
X149162999Y-82305247D01*
X149151368Y-82246770D01*
X149151367Y-82246769D01*
X149107052Y-82180447D01*
X149103543Y-82178103D01*
X149058737Y-82124492D01*
X149050028Y-82055167D01*
X149080182Y-81992139D01*
X149103543Y-81971897D01*
X149107052Y-81969552D01*
X149115068Y-81957555D01*
X149151367Y-81903231D01*
X149151367Y-81903229D01*
X149151368Y-81903229D01*
X149162572Y-81846899D01*
X149163000Y-81844748D01*
X149163000Y-80805252D01*
X149163000Y-80805249D01*
X149162999Y-80805247D01*
X149151368Y-80746770D01*
X149151367Y-80746769D01*
X149107052Y-80680447D01*
X149103543Y-80678103D01*
X149058737Y-80624492D01*
X149050028Y-80555167D01*
X149080182Y-80492139D01*
X149103543Y-80471897D01*
X149107052Y-80469552D01*
X149112298Y-80461701D01*
X149151367Y-80403231D01*
X149151367Y-80403229D01*
X149151368Y-80403229D01*
X149162572Y-80346899D01*
X149163000Y-80344748D01*
X149163000Y-79305252D01*
X149163000Y-79305249D01*
X149162999Y-79305247D01*
X149151368Y-79246770D01*
X149151367Y-79246769D01*
X149107052Y-79180447D01*
X149040730Y-79136132D01*
X149040729Y-79136131D01*
X148982252Y-79124500D01*
X148982248Y-79124500D01*
X146682752Y-79124500D01*
X146682747Y-79124500D01*
X146624270Y-79136131D01*
X146624269Y-79136132D01*
X146557947Y-79180447D01*
X146513632Y-79246769D01*
X146513631Y-79246770D01*
X146502000Y-79305247D01*
X146502000Y-80344752D01*
X146513631Y-80403229D01*
X146513632Y-80403230D01*
X146557948Y-80469553D01*
X146561459Y-80471899D01*
X146606264Y-80525512D01*
X146614970Y-80594837D01*
X146584814Y-80657864D01*
X146561459Y-80678101D01*
X146557948Y-80680446D01*
X146513632Y-80746769D01*
X146513631Y-80746770D01*
X146502000Y-80805247D01*
X146502000Y-81844752D01*
X146513631Y-81903229D01*
X146513632Y-81903230D01*
X146557948Y-81969553D01*
X146561459Y-81971899D01*
X146606264Y-82025512D01*
X146614970Y-82094837D01*
X146584814Y-82157864D01*
X146561459Y-82178101D01*
X146557948Y-82180446D01*
X146513632Y-82246769D01*
X146513631Y-82246770D01*
X146502000Y-82305247D01*
X146502000Y-83344752D01*
X140950500Y-83344752D01*
X140950500Y-83185547D01*
X140950613Y-83181802D01*
X140954358Y-83119894D01*
X140943175Y-83058871D01*
X140942613Y-83055174D01*
X140940618Y-83038751D01*
X140935140Y-82993628D01*
X140931548Y-82984156D01*
X140925521Y-82962534D01*
X140923695Y-82952571D01*
X140923695Y-82952569D01*
X140898224Y-82895976D01*
X140896817Y-82892579D01*
X140874818Y-82834570D01*
X140874816Y-82834568D01*
X140874816Y-82834566D01*
X140869062Y-82826231D01*
X140858034Y-82806677D01*
X140853880Y-82797447D01*
X140853878Y-82797444D01*
X140815621Y-82748612D01*
X140813427Y-82745630D01*
X140778183Y-82694571D01*
X140731750Y-82653435D01*
X140729056Y-82650899D01*
X140708773Y-82630616D01*
X140675288Y-82569293D01*
X140680272Y-82499601D01*
X140722144Y-82443668D01*
X140738126Y-82433510D01*
X140812085Y-82394100D01*
X140864889Y-82348345D01*
X140882843Y-82330754D01*
X140927490Y-82250937D01*
X140947175Y-82183898D01*
X140955500Y-82126000D01*
X140955500Y-77374000D01*
X140950803Y-77330316D01*
X140946535Y-77310701D01*
X140939598Y-77278807D01*
X140937110Y-77268629D01*
X140937110Y-77268627D01*
X140894100Y-77187915D01*
X140848345Y-77135111D01*
X140830756Y-77117159D01*
X140830750Y-77117154D01*
X140750940Y-77072511D01*
X140750935Y-77072509D01*
X140683903Y-77052826D01*
X140683899Y-77052825D01*
X140683898Y-77052825D01*
X140626000Y-77044500D01*
X122688419Y-77044500D01*
X122621380Y-77024815D01*
X122575625Y-76972011D01*
X122565681Y-76902853D01*
X122594706Y-76839297D01*
X122607395Y-76826633D01*
X122901229Y-76573002D01*
X123642790Y-75985248D01*
X124408313Y-75429063D01*
X125196455Y-74905422D01*
X126005833Y-74415245D01*
X126835029Y-73959391D01*
X127682586Y-73538660D01*
X127775648Y-73497226D01*
X128542551Y-73155778D01*
X128548048Y-73153382D01*
X129412798Y-72811003D01*
X129430162Y-72804288D01*
X130297389Y-72502287D01*
X130326181Y-72492528D01*
X131194817Y-72230271D01*
X131234461Y-72218672D01*
X131732829Y-72090713D01*
X132103400Y-71995568D01*
X132121901Y-71990991D01*
X132153415Y-71983195D01*
X133021760Y-71798623D01*
X133081431Y-71786508D01*
X133947983Y-71639942D01*
X134016917Y-71628950D01*
X134880566Y-71519846D01*
X134958111Y-71510812D01*
X135817882Y-71438615D01*
X135903448Y-71432289D01*
X136758264Y-71396462D01*
X136851233Y-71393522D01*
X137699889Y-71393522D01*
X137799785Y-71394574D01*
G37*
G04 #@! TD.AperFunction*
G04 #@! TA.AperFunction,NonConductor*
G36*
X136243773Y-107143695D02*
G01*
X136291384Y-107194832D01*
X136304500Y-107250337D01*
X136304500Y-107609776D01*
X136284815Y-107676815D01*
X136265138Y-107700398D01*
X136226362Y-107736613D01*
X136152733Y-107857690D01*
X136118577Y-107979594D01*
X136081535Y-108038837D01*
X136018344Y-108068648D01*
X135949068Y-108059564D01*
X135895700Y-108014468D01*
X135876330Y-107963023D01*
X135875480Y-107956836D01*
X135871051Y-107924612D01*
X135814595Y-107794636D01*
X135752320Y-107718091D01*
X135725282Y-107653666D01*
X135737366Y-107584850D01*
X135784737Y-107533491D01*
X135801057Y-107525274D01*
X135802841Y-107524536D01*
X135928282Y-107428282D01*
X136024536Y-107302841D01*
X136065939Y-107202884D01*
X136109780Y-107148481D01*
X136176074Y-107126416D01*
X136243773Y-107143695D01*
G37*
G04 #@! TD.AperFunction*
G04 #@! TA.AperFunction,Conductor*
G36*
X140693039Y-77269685D02*
G01*
X140738794Y-77322489D01*
X140750000Y-77374000D01*
X140750000Y-82126000D01*
X140730315Y-82193039D01*
X140677511Y-82238794D01*
X140626000Y-82250000D01*
X139573030Y-82250000D01*
X139505991Y-82230315D01*
X139460236Y-82177511D01*
X139449889Y-82113656D01*
X139449822Y-82113653D01*
X139449838Y-82113343D01*
X139449741Y-82112742D01*
X139449999Y-82110339D01*
X139450000Y-82110327D01*
X139450000Y-81662500D01*
X138374000Y-81662500D01*
X138306961Y-81642815D01*
X138261206Y-81590011D01*
X138250000Y-81538500D01*
X138250000Y-80262500D01*
X138750000Y-80262500D01*
X138750000Y-81162500D01*
X139450000Y-81162500D01*
X139450000Y-80714672D01*
X139449999Y-80714655D01*
X139443598Y-80655127D01*
X139443596Y-80655120D01*
X139393354Y-80520413D01*
X139393350Y-80520406D01*
X139307190Y-80405312D01*
X139307187Y-80405309D01*
X139192093Y-80319149D01*
X139192086Y-80319145D01*
X139057379Y-80268903D01*
X139057372Y-80268901D01*
X138997844Y-80262500D01*
X138750000Y-80262500D01*
X138250000Y-80262500D01*
X138002155Y-80262500D01*
X137942627Y-80268901D01*
X137942620Y-80268903D01*
X137807913Y-80319145D01*
X137807911Y-80319146D01*
X137698311Y-80401194D01*
X137632847Y-80425611D01*
X137564574Y-80410760D01*
X137515168Y-80361355D01*
X137500000Y-80301927D01*
X137500000Y-79000000D01*
X128417872Y-79000000D01*
X128411792Y-78999701D01*
X128409750Y-78999500D01*
X128409748Y-78999500D01*
X127368428Y-78999500D01*
X127360329Y-78998969D01*
X127325000Y-78994318D01*
X127289670Y-78998969D01*
X127281572Y-78999500D01*
X126110250Y-78999500D01*
X126108208Y-78999701D01*
X126102128Y-79000000D01*
X125000000Y-79000000D01*
X125000000Y-84126000D01*
X124980315Y-84193039D01*
X124927511Y-84238794D01*
X124876000Y-84250000D01*
X120874000Y-84250000D01*
X120806961Y-84230315D01*
X120761206Y-84177511D01*
X120750000Y-84126000D01*
X120750000Y-82950000D01*
X121210000Y-82950000D01*
X121210000Y-83247844D01*
X121216401Y-83307372D01*
X121216403Y-83307379D01*
X121266645Y-83442086D01*
X121266649Y-83442093D01*
X121352809Y-83557187D01*
X121352812Y-83557190D01*
X121467906Y-83643350D01*
X121467913Y-83643354D01*
X121602620Y-83693596D01*
X121602627Y-83693598D01*
X121662155Y-83699999D01*
X121662172Y-83700000D01*
X122590000Y-83700000D01*
X122590000Y-82950000D01*
X123090000Y-82950000D01*
X123090000Y-83700000D01*
X124017828Y-83700000D01*
X124017844Y-83699999D01*
X124077372Y-83693598D01*
X124077379Y-83693596D01*
X124212086Y-83643354D01*
X124212093Y-83643350D01*
X124327187Y-83557190D01*
X124327190Y-83557187D01*
X124413350Y-83442093D01*
X124413354Y-83442086D01*
X124463596Y-83307379D01*
X124463598Y-83307372D01*
X124469999Y-83247844D01*
X124470000Y-83247827D01*
X124470000Y-82950000D01*
X123090000Y-82950000D01*
X122590000Y-82950000D01*
X121210000Y-82950000D01*
X120750000Y-82950000D01*
X120750000Y-81450000D01*
X121210000Y-81450000D01*
X121210000Y-81747844D01*
X121216401Y-81807372D01*
X121216403Y-81807383D01*
X121253434Y-81906668D01*
X121258418Y-81976360D01*
X121253434Y-81993332D01*
X121216403Y-82092616D01*
X121216401Y-82092627D01*
X121210000Y-82152155D01*
X121210000Y-82450000D01*
X122590000Y-82450000D01*
X122590000Y-81450000D01*
X123090000Y-81450000D01*
X123090000Y-82450000D01*
X124470000Y-82450000D01*
X124470000Y-82152172D01*
X124469999Y-82152155D01*
X124463598Y-82092627D01*
X124463597Y-82092623D01*
X124426564Y-81993334D01*
X124421580Y-81923642D01*
X124426564Y-81906666D01*
X124463597Y-81807376D01*
X124463598Y-81807372D01*
X124469999Y-81747844D01*
X124470000Y-81747827D01*
X124470000Y-81450000D01*
X123090000Y-81450000D01*
X122590000Y-81450000D01*
X121210000Y-81450000D01*
X120750000Y-81450000D01*
X120750000Y-79950000D01*
X121210000Y-79950000D01*
X121210000Y-80247844D01*
X121216401Y-80307372D01*
X121216403Y-80307383D01*
X121253434Y-80406668D01*
X121258418Y-80476360D01*
X121253434Y-80493332D01*
X121216403Y-80592616D01*
X121216401Y-80592627D01*
X121210000Y-80652155D01*
X121210000Y-80950000D01*
X122590000Y-80950000D01*
X122590000Y-79950000D01*
X123090000Y-79950000D01*
X123090000Y-80950000D01*
X124470000Y-80950000D01*
X124470000Y-80652172D01*
X124469999Y-80652155D01*
X124463598Y-80592627D01*
X124463597Y-80592623D01*
X124426564Y-80493334D01*
X124421580Y-80423642D01*
X124426564Y-80406666D01*
X124463597Y-80307376D01*
X124463598Y-80307372D01*
X124469999Y-80247844D01*
X124470000Y-80247827D01*
X124470000Y-79950000D01*
X123090000Y-79950000D01*
X122590000Y-79950000D01*
X121210000Y-79950000D01*
X120750000Y-79950000D01*
X120750000Y-79450000D01*
X121210000Y-79450000D01*
X122590000Y-79450000D01*
X122590000Y-78700000D01*
X123090000Y-78700000D01*
X123090000Y-79450000D01*
X124470000Y-79450000D01*
X124470000Y-79152172D01*
X124469999Y-79152155D01*
X124463598Y-79092627D01*
X124463596Y-79092620D01*
X124413354Y-78957913D01*
X124413350Y-78957906D01*
X124327190Y-78842812D01*
X124327187Y-78842809D01*
X124212093Y-78756649D01*
X124212086Y-78756645D01*
X124077379Y-78706403D01*
X124077372Y-78706401D01*
X124017844Y-78700000D01*
X123090000Y-78700000D01*
X122590000Y-78700000D01*
X121662155Y-78700000D01*
X121602627Y-78706401D01*
X121602620Y-78706403D01*
X121467913Y-78756645D01*
X121467906Y-78756649D01*
X121352812Y-78842809D01*
X121352809Y-78842812D01*
X121266649Y-78957906D01*
X121266645Y-78957913D01*
X121216403Y-79092620D01*
X121216401Y-79092627D01*
X121210000Y-79152155D01*
X121210000Y-79450000D01*
X120750000Y-79450000D01*
X120750000Y-79051362D01*
X120769685Y-78984323D01*
X120786319Y-78963681D01*
X122463681Y-77286319D01*
X122525004Y-77252834D01*
X122551362Y-77250000D01*
X140626000Y-77250000D01*
X140693039Y-77269685D01*
G37*
G04 #@! TD.AperFunction*
M02*
