%TF.GenerationSoftware,KiCad,Pcbnew,7.0.8*%
%TF.CreationDate,2023-12-04T03:04:40-07:00*%
%TF.ProjectId,Lit,4c69742e-6b69-4636-9164-5f7063625858,rev?*%
%TF.SameCoordinates,Original*%
%TF.FileFunction,Drillmap*%
%TF.FilePolarity,Positive*%
%FSLAX45Y45*%
G04 Gerber Fmt 4.5, Leading zero omitted, Abs format (unit mm)*
G04 Created by KiCad (PCBNEW 7.0.8) date 2023-12-04 03:04:40*
%MOMM*%
%LPD*%
G01*
G04 APERTURE LIST*
%ADD10C,0.100000*%
%ADD11C,0.200000*%
G04 APERTURE END LIST*
D10*
X15989348Y-9398000D02*
G75*
G03*
X15989348Y-9398000I-2259193J0D01*
G01*
D11*
X11726738Y-11973677D02*
X11726738Y-11773677D01*
X11726738Y-11773677D02*
X11774357Y-11773677D01*
X11774357Y-11773677D02*
X11802929Y-11783201D01*
X11802929Y-11783201D02*
X11821977Y-11802248D01*
X11821977Y-11802248D02*
X11831500Y-11821296D01*
X11831500Y-11821296D02*
X11841024Y-11859391D01*
X11841024Y-11859391D02*
X11841024Y-11887963D01*
X11841024Y-11887963D02*
X11831500Y-11926058D01*
X11831500Y-11926058D02*
X11821977Y-11945106D01*
X11821977Y-11945106D02*
X11802929Y-11964153D01*
X11802929Y-11964153D02*
X11774357Y-11973677D01*
X11774357Y-11973677D02*
X11726738Y-11973677D01*
X11926738Y-11973677D02*
X11926738Y-11840344D01*
X11926738Y-11878439D02*
X11936262Y-11859391D01*
X11936262Y-11859391D02*
X11945786Y-11849867D01*
X11945786Y-11849867D02*
X11964834Y-11840344D01*
X11964834Y-11840344D02*
X11983881Y-11840344D01*
X12050548Y-11973677D02*
X12050548Y-11840344D01*
X12050548Y-11773677D02*
X12041024Y-11783201D01*
X12041024Y-11783201D02*
X12050548Y-11792725D01*
X12050548Y-11792725D02*
X12060072Y-11783201D01*
X12060072Y-11783201D02*
X12050548Y-11773677D01*
X12050548Y-11773677D02*
X12050548Y-11792725D01*
X12174357Y-11973677D02*
X12155310Y-11964153D01*
X12155310Y-11964153D02*
X12145786Y-11945106D01*
X12145786Y-11945106D02*
X12145786Y-11773677D01*
X12279119Y-11973677D02*
X12260072Y-11964153D01*
X12260072Y-11964153D02*
X12250548Y-11945106D01*
X12250548Y-11945106D02*
X12250548Y-11773677D01*
X12507691Y-11973677D02*
X12507691Y-11773677D01*
X12507691Y-11773677D02*
X12574358Y-11916534D01*
X12574358Y-11916534D02*
X12641024Y-11773677D01*
X12641024Y-11773677D02*
X12641024Y-11973677D01*
X12821977Y-11973677D02*
X12821977Y-11868915D01*
X12821977Y-11868915D02*
X12812453Y-11849867D01*
X12812453Y-11849867D02*
X12793405Y-11840344D01*
X12793405Y-11840344D02*
X12755310Y-11840344D01*
X12755310Y-11840344D02*
X12736262Y-11849867D01*
X12821977Y-11964153D02*
X12802929Y-11973677D01*
X12802929Y-11973677D02*
X12755310Y-11973677D01*
X12755310Y-11973677D02*
X12736262Y-11964153D01*
X12736262Y-11964153D02*
X12726738Y-11945106D01*
X12726738Y-11945106D02*
X12726738Y-11926058D01*
X12726738Y-11926058D02*
X12736262Y-11907010D01*
X12736262Y-11907010D02*
X12755310Y-11897487D01*
X12755310Y-11897487D02*
X12802929Y-11897487D01*
X12802929Y-11897487D02*
X12821977Y-11887963D01*
X12917215Y-11840344D02*
X12917215Y-12040344D01*
X12917215Y-11849867D02*
X12936262Y-11840344D01*
X12936262Y-11840344D02*
X12974358Y-11840344D01*
X12974358Y-11840344D02*
X12993405Y-11849867D01*
X12993405Y-11849867D02*
X13002929Y-11859391D01*
X13002929Y-11859391D02*
X13012453Y-11878439D01*
X13012453Y-11878439D02*
X13012453Y-11935582D01*
X13012453Y-11935582D02*
X13002929Y-11954629D01*
X13002929Y-11954629D02*
X12993405Y-11964153D01*
X12993405Y-11964153D02*
X12974358Y-11973677D01*
X12974358Y-11973677D02*
X12936262Y-11973677D01*
X12936262Y-11973677D02*
X12917215Y-11964153D01*
X13098167Y-11954629D02*
X13107691Y-11964153D01*
X13107691Y-11964153D02*
X13098167Y-11973677D01*
X13098167Y-11973677D02*
X13088643Y-11964153D01*
X13088643Y-11964153D02*
X13098167Y-11954629D01*
X13098167Y-11954629D02*
X13098167Y-11973677D01*
X13098167Y-11849867D02*
X13107691Y-11859391D01*
X13107691Y-11859391D02*
X13098167Y-11868915D01*
X13098167Y-11868915D02*
X13088643Y-11859391D01*
X13088643Y-11859391D02*
X13098167Y-11849867D01*
X13098167Y-11849867D02*
X13098167Y-11868915D01*
M02*
